<?xml version="1.0" standalone="no"?>
<!DOCTYPE svg PUBLIC "-//W3C//DTD SVG 1.1//EN" "http://www.w3.org/Graphics/SVG/1.1/DTD/svg11.dtd" >
<svg xmlns="http://www.w3.org/2000/svg">
<metadata>
This is a custom SVG webfont generated by Font Squirrel.
Copyright   : Copyrightc 2011 M FONTS PROJECT
Foundry URL : httpmplusfontssourceforgejp
</metadata>
<defs>
<font id="M+1mnregular" horiz-adv-x="1024" >
<font-face units-per-em="2048" ascent="1761" descent="-287" />
<missing-glyph horiz-adv-x="500" />
<glyph unicode=" " />
<glyph unicode="!" d="M399 0v266h226v-266h-226zM410 1495h204l-20 -1055h-164z" />
<glyph unicode="&#x22;" d="M236 1597h204l-41 -573h-123zM584 1597h204l-40 -573h-123z" />
<glyph unicode="#" d="M82 385v135h143l47 492h-118v135h131l34 348h164l-34 -348h204l35 348h164l-35 -348h125v-135h-137l-47 -492h112v-135h-127l-36 -385h-164l37 385h-205l-37 -385h-164l37 385h-129zM389 520h205l47 492h-205z" />
<glyph unicode="$" d="M154 1096q0 176 97 272t279 96v205h148v-215q100 -16 182 -51v-152q-76 41 -182 66v-535q115 -59 164 -146t49 -216q0 -383 -377 -389v-205h-147v217q-94 16 -203 70v163q102 -68 203 -96v565q-115 59 -164 141.5t-49 209.5zM322 1096q0 -184 190 -246l18 -6v489 q-208 -6 -208 -237zM514 162q209 12 209 258q0 195 -209 266v-524z" />
<glyph unicode="%" d="M61 1188q0 160 71 244t196 84t195.5 -84t70.5 -244t-70.5 -244t-195.5 -84t-196 84t-71 244zM123 369v163l778 594v-163zM221 1188q0 -205 106.5 -205t106.5 205t-106.5 205t-106.5 -205zM430 307q0 160 70.5 244t195.5 84t196 -84t71 -244t-71 -243.5t-196 -83.5 t-195.5 83.5t-70.5 243.5zM590 307q0 -205 106.5 -205t106.5 205t-106.5 205t-106.5 -205z" />
<glyph unicode="&#x26;" d="M61 399q0 303 279 414v4q-104 55 -160.5 149.5t-56.5 211.5q0 154 100.5 246t278.5 92q121 0 239 -23v-141q-109 29 -209 28q-242 0 -241 -233q0 -127 77.5 -201t204.5 -74h78v275h168v-275h164v-135h-164v-717q-158 -41 -317 -40q-215 0 -328 106t-113 313zM233 410 q0 -145 68 -220t191 -75q80 0 159 20v602h-82q-152 0 -244 -90t-92 -237z" />
<glyph unicode="'" d="M399 1597h226l-52 -573h-122z" />
<glyph unicode="(" d="M256 645q0 563 397 932h156q-186 -174 -287.5 -419t-101.5 -513t101.5 -513t287.5 -419h-156q-397 369 -397 932z" />
<glyph unicode=")" d="M215 -287q186 174 287.5 419t101.5 513t-101.5 513t-287.5 419h156q397 -369 397 -932t-397 -932h-156z" />
<glyph unicode="*" d="M84 1155l57 178l322 -153l-45 354h188l-45 -354l322 153l57 -178l-350 -68l244 -258l-152 -110l-170 313l-170 -313l-152 110l244 258z" />
<glyph unicode="+" d="M82 563v135h344v439h172v-439h344v-135h-344v-450h-172v450h-344z" />
<glyph unicode="," d="M307 -266q86 301 123 573h246q-76 -287 -225 -573h-144z" />
<glyph unicode="-" d="M215 537v137h594v-137h-594z" />
<glyph unicode="." d="M379 0v307h266v-307h-266z" />
<glyph unicode="/" d="M98 -82l680 1577h148l-680 -1577h-148z" />
<glyph unicode="0" d="M123 747.5q0 221.5 24.5 372t75.5 236.5t121 123t168 37t168 -37t121 -123t75.5 -236.5t24.5 -372t-24.5 -372t-75.5 -236.5t-121 -122.5t-168 -36.5t-168 36.5t-121 122.5t-75.5 236.5t-24.5 372zM283 748q0 -150 8 -240l403 698q-53 174 -182 174q-115 0 -172 -140 t-57 -492zM322 315q53 -201 190 -200q115 0 172 140t57 493q0 162 -12 274z" />
<glyph unicode="1" d="M170 1120v160l358 215h168v-1495h-172v1325l-4 2z" />
<glyph unicode="2" d="M164 0v135q510 563 510 991q0 254 -193 254q-141 0 -317 -118v151q164 102 348 103q338 0 338 -390q0 -203 -117 -433t-391 -554v-4h518v-135h-696z" />
<glyph unicode="3" d="M133 41v149q86 -45 145.5 -60t141.5 -15q279 0 278 325q0 156 -81.5 226.5t-268.5 70.5h-41v135h41q174 0 254 69t80 216q0 109 -55.5 166t-157.5 57q-141 0 -307 -86v150q98 43 161.5 57.5t155.5 14.5q172 0 271.5 -91.5t99.5 -246.5q0 -289 -246 -361v-6 q266 -55 266 -381q0 -451 -440 -450q-88 0 -146.5 11t-150.5 50z" />
<glyph unicode="4" d="M82 358v136l498 1001h188v-1001h174v-136h-174v-358h-172v358h-514zM227 494h369v745h-4l-365 -741v-4z" />
<glyph unicode="5" d="M184 41v149q145 -76 267 -75q135 0 196.5 78.5t61.5 277.5q0 336 -197 336q-53 0 -88 -19.5t-76 -70.5h-153l20 778h625v-135h-465l-17 -479h4q76 61 191 61q328 0 328 -471q0 -268 -99.5 -379.5t-320.5 -111.5q-146 0 -277 61z" />
<glyph unicode="6" d="M143 655q0 324 52.5 516.5t145.5 268.5t243 76q125 0 235 -41v-146q-102 51 -215 51q-147 0 -213.5 -103.5t-83.5 -385.5h4q109 102 242 102q178 0 263 -114.5t85 -376.5q0 -281 -93 -401.5t-286 -120.5q-203 0 -291 144t-88 531zM315 522q0 -227 50.5 -317t156.5 -90 q113 0 162 82t49 305q0 201 -47 278.5t-154 77.5q-109 0 -163 -79t-54 -257z" />
<glyph unicode="7" d="M154 1360v135h716v-135q-262 -606 -430 -1360h-180q170 719 461 1356v4h-567z" />
<glyph unicode="8" d="M102 389q0 139 68 243.5t188 153.5v5q-98 47 -161.5 150t-63.5 216q0 168 100.5 263.5t278.5 95.5t278.5 -96.5t100.5 -262.5q0 -115 -62.5 -212t-162.5 -144v-4q121 -47 188.5 -153.5t67.5 -254.5q0 -201 -112 -305t-308 -104q-195 0 -297.5 104t-102.5 305zM258 389 q0 -274 254 -274q113 0 175.5 68.5t62.5 205.5q0 276 -248 338q-127 -35 -185.5 -115t-58.5 -223zM301 1157q0 -119 58.5 -202t152.5 -105q106 29 164.5 107.5t58.5 199.5q0 106 -56 164.5t-157 58.5q-221 0 -221 -223z" />
<glyph unicode="9" d="M123 1014q0 502 379 502q139 0 219 -57.5t120 -206t40 -412.5q0 -330 -51.5 -521.5t-144.5 -265t-245 -73.5q-125 0 -235 40v148q106 -53 215 -53q145 0 212.5 102t84.5 387h-4q-109 -102 -242 -102q-172 0 -260 121t-88 391zM291 1014q0 -207 49 -292t152 -85 q217 0 217 356q0 215 -50.5 301t-156.5 86q-113 0 -162 -78.5t-49 -287.5z" />
<glyph unicode=":" d="M389 0v307h246v-307h-246zM389 799v307h246v-307h-246z" />
<glyph unicode=";" d="M287 -266q86 301 123 573h245q-76 -287 -225 -573h-143zM410 799v307h245v-307h-245z" />
<glyph unicode="&#x3c;" d="M113 543v164l778 501v-164l-676 -417v-4l676 -418v-164z" />
<glyph unicode="=" d="M123 338v135h778v-135h-778zM123 776v135h778v-135h-778z" />
<glyph unicode="&#x3e;" d="M133 41v164l676 418v4l-676 417v164l778 -501v-164z" />
<glyph unicode="?" d="M133 1255v168q190 92 389 93q186 0 287.5 -86.5t101.5 -241.5q0 -80 -26.5 -148.5t-55 -105.5t-84.5 -94q-59 -61 -89.5 -102.5t-61.5 -121t-31 -176.5h-164q0 113 34 208t66.5 139t96.5 116q51 57 73.5 87t46 84t23.5 114q0 193 -237 192q-174 0 -369 -125zM369 0v266 h225v-266h-225z" />
<glyph unicode="@" d="M72 532q0 403 123.5 585.5t367.5 182.5q178 0 273.5 -102t95.5 -307v-666q-133 -133 -287 -133q-152 0 -223.5 98.5t-71.5 341.5q0 236 68.5 338.5t206.5 102.5q80 0 145 -51h4v10q0 115 -53 174t-148 59q-170 0 -253.5 -143t-83.5 -490q0 -244 40.5 -385t111.5 -194 t185 -53q127 0 256 77v-151q-121 -61 -266 -62q-250 0 -370.5 176t-120.5 592zM506 532q0 -182 33.5 -247.5t105.5 -65.5q84 0 119 74v465q-37 88 -119 88q-78 0 -108.5 -63t-30.5 -251z" />
<glyph unicode="A" d="M41 0l369 1495h204l369 -1495h-180l-98 438h-394l-98 -438h-172zM340 569h336l-166 742h-4z" />
<glyph unicode="B" d="M154 20v1455q154 41 317 41q420 0 420 -369q0 -125 -62.5 -211t-173.5 -115v-4q119 -23 198 -131t79 -256q0 -451 -461 -450q-163 -1 -317 40zM326 137q68 -23 145 -22q293 0 293 315q0 317 -330 318h-108v-611zM326 879h88q164 0 238.5 63.5t74.5 204.5q0 111 -66.5 172 t-189.5 61q-88 0 -145 -22v-479z" />
<glyph unicode="C" d="M113 768q0 377 132 562.5t369 185.5q129 0 246 -41v-410h-168v303q-37 8 -57 8q-162 0 -254 -148.5t-92 -459.5q0 -653 346 -653q111 0 215 63v-147q-106 -51 -236 -51q-246 0 -373.5 187t-127.5 601z" />
<glyph unicode="D" d="M133 20v1455q137 41 281 41q281 0 409.5 -170t128.5 -578q0 -434 -130 -611t-408 -177q-144 -1 -281 40zM305 137q41 -23 109 -22q133 0 209.5 53t118.5 197.5t42 402.5q0 340 -89 476t-281 136q-68 0 -109 -22v-1221z" />
<glyph unicode="E" d="M174 0v1495h676v-135h-504v-481h483v-131h-483v-613h504v-135h-676z" />
<glyph unicode="F" d="M195 0v1495h655v-135h-483v-481h462v-131h-462v-748h-172z" />
<glyph unicode="G" d="M92 768q0 748 522 748q119 0 246 -41v-148q-133 49 -246 49q-346 0 -346 -608q0 -653 326 -653q78 0 149 37v596h-313v131h481v-828q-152 -72 -327 -71q-492 0 -492 788z" />
<glyph unicode="H" d="M123 0v1495h164v-614h442v614h172v-1495h-172v745h-442v-745h-164z" />
<glyph unicode="I" d="M184 0v135h240v1225h-240v135h656v-135h-240v-1225h240v-135h-656z" />
<glyph unicode="J" d="M123 51v148q59 -33 154.5 -58.5t152.5 -25.5q111 0 162 55t51 182v1008h-356v135h532v-1147q0 -209 -84 -288.5t-305 -79.5q-170 -1 -307 71z" />
<glyph unicode="K" d="M154 0v1495h172v-676h4l422 676h190l-457 -717l467 -778h-190l-432 737h-4v-737h-172z" />
<glyph unicode="L" d="M205 0v1495h172v-1360h504v-135h-676z" />
<glyph unicode="M" d="M61 0l82 1495h226l149 -922h4l166 922h193l82 -1495h-172l-31 1352h-4l-162 -942h-176l-150 942h-4l-39 -1352h-164z" />
<glyph unicode="N" d="M143 0v1495h172l398 -1147h4v1147h164v-1495h-164l-398 1147h-4v-1147h-172z" />
<glyph unicode="O" d="M82 748q0 426 102.5 597t327.5 171t327.5 -171t102.5 -597t-102.5 -597t-327.5 -171t-327.5 171t-102.5 597zM246 747.5q0 -356.5 64.5 -494.5t201.5 -138t201.5 138t64.5 494.5t-64.5 494.5t-201.5 138t-201.5 -138t-64.5 -494.5z" />
<glyph unicode="P" d="M154 0v1475q154 41 317 41q240 0 350.5 -113t110.5 -359q0 -260 -111.5 -375.5t-349.5 -115.5q-63 0 -145 10v-563h-172zM326 707q57 -23 145 -23q154 0 223.5 82t69.5 278q0 176 -70.5 256t-222.5 80q-88 0 -145 -22v-651z" />
<glyph unicode="Q" d="M82 748q0 426 102.5 597t327.5 171t327.5 -171t102.5 -597q0 -305 -50 -468t-155 -237v-4q84 -43 149.5 -135t96.5 -211h-180q-43 160 -110.5 223.5t-180.5 63.5q-225 0 -327.5 171t-102.5 597zM246 747.5q0 -356.5 64.5 -494.5t201.5 -138t201.5 138t64.5 494.5 t-64.5 494.5t-201.5 138t-201.5 -138t-64.5 -494.5z" />
<glyph unicode="R" d="M143 0v1475q154 41 318 41q461 0 461 -420q0 -129 -64.5 -226.5t-179.5 -148.5v-4q96 -74 156 -279l129 -438h-177l-120 442q-37 133 -92.5 183.5t-159.5 50.5h-99v-676h-172zM315 811h99q188 0 264 63.5t76 221.5q0 285 -293 284q-88 0 -146 -22v-547z" />
<glyph unicode="S" d="M143 1147q0 174 103.5 271.5t296.5 97.5q162 0 317 -62v-164q-143 90 -307 90q-113 0 -177.5 -62.5t-64.5 -170.5q0 -102 45 -170t146 -113q227 -100 313 -209.5t86 -285.5q0 -389 -420 -389q-186 0 -327 92v168q150 -125 338 -125q238 0 237 254q0 113 -51 186.5 t-176 130.5q-193 86 -276 195.5t-83 265.5z" />
<glyph unicode="T" d="M113 1360v135h798v-135h-313v-1360h-172v1360h-313z" />
<glyph unicode="U" d="M123 369v1126h172v-1085q0 -162 53 -228.5t168 -66.5q117 0 169 65.5t52 229.5v1085h164v-1126q0 -205 -94 -297t-295 -92t-295 92t-94 297z" />
<glyph unicode="V" d="M61 1495h177l276 -1331h4l277 1331h168l-349 -1495h-204z" />
<glyph unicode="W" d="M31 1495h172l94 -1167h4l135 962h164l129 -1167h4l101 1372h159l-153 -1495h-217l-127 1044h-4l-144 -1044h-164z" />
<glyph unicode="X" d="M102 0l308 768l-304 727h185l223 -594h4l223 594h177l-304 -727l308 -768h-189l-223 625h-4l-223 -625h-181z" />
<glyph unicode="Y" d="M61 1495h185l268 -727h4l270 727h175l-365 -901v-594h-172v594z" />
<glyph unicode="Z" d="M154 0v135l532 1221v4h-532v135h716v-135l-532 -1221v-4h532v-135h-716z" />
<glyph unicode="[" d="M287 -287v1864h512v-115h-340v-1634h340v-115h-512z" />
<glyph unicode="\" d="M98 1495h148l680 -1577h-148z" />
<glyph unicode="]" d="M225 -172h340v1634h-340v115h512v-1864h-512v115z" />
<glyph unicode="^" d="M61 573l349 922h204l349 -922h-160l-289 799h-4l-289 -799h-160z" />
<glyph unicode="_" d="M102 -172h820v-115h-820v115z" />
<glyph unicode="`" d="M266 1659h246q82 -289 205 -574h-144q-184 275 -307 574z" />
<glyph unicode="a" d="M133 317q0 369 502 369h67v51q0 133 -36.5 175t-153.5 42q-160 0 -328 -67v137q168 61 328 61q213 0 285.5 -75.5t72.5 -313.5v-655q-145 -61 -338 -61q-186 0 -292.5 88.5t-106.5 248.5zM301 317q0 -100 62.5 -155.5t168.5 -55.5q96 0 170 31v426h-67q-178 0 -256 -60.5 t-78 -185.5z" />
<glyph unicode="b" d="M154 41v1495h168v-492q96 41 190 41q199 0 299 -132t100 -421q0 -295 -104.5 -423.5t-314.5 -128.5q-193 0 -338 61zM322 137q74 -31 170 -31q123 0 187 99.5t64 326.5q0 422 -231 422q-115 0 -190 -67v-750z" />
<glyph unicode="c" d="M133 532q0 553 461 553q139 0 246 -30v-348h-164v241q-31 6 -72 6q-141 0 -220 -105.5t-79 -316.5q0 -213 80 -319.5t219 -106.5q117 0 225 58v-133q-115 -51 -235 -51q-221 0 -341 135.5t-120 416.5z" />
<glyph unicode="d" d="M113 532q0 289 100 421t299 132q94 0 190 -41v492h168v-1495q-145 -61 -338 -61q-209 0 -314 129.5t-105 422.5zM281 532q0 -227 64.5 -326.5t186.5 -99.5q96 0 170 31v750q-76 68 -190 67q-231 0 -231 -422z" />
<glyph unicode="e" d="M113 532q0 289 102 421t307 132q186 0 277.5 -127t91.5 -415q0 -14 -4 -56h-602q8 -201 78.5 -291t199.5 -90q123 0 277 58v-133q-152 -51 -287 -51q-440 -1 -440 552zM287 614h436q-6 342 -201 342q-115 0 -171 -76t-64 -266z" />
<glyph unicode="f" d="M154 897v127h245v143q0 195 63.5 272t223.5 77q94 0 184 -21v-137q-76 27 -153 26q-72 0 -99.5 -16t-39 -71.5t-11.5 -190.5v-82h303v-127h-303v-897h-168v897h-245z" />
<glyph unicode="g" d="M123 563q0 272 107.5 397t332.5 125q170 0 318 -41v-972q0 -250 -169 -396.5t-456 -146.5v131q213 0 335 105.5t122 285.5v31q-92 -41 -191 -41q-399 0 -399 522zM291 563q0 -395 231 -395q115 0 191 63v709q-74 14 -150 14q-135 0 -203.5 -93t-68.5 -298z" />
<glyph unicode="h" d="M154 0v1536h168v-512q117 61 251 61q162 0 240 -93t78 -296v-696h-160v655q0 178 -42 238.5t-157 60.5q-57 0 -117.5 -24.5t-92.5 -63.5v-866h-168z" />
<glyph unicode="i" d="M217 938v127h451v-1065h-172v938h-279zM455 1311v245h213v-245h-213z" />
<glyph unicode="j" d="M125 -340q184 0 282.5 99.5t98.5 297.5v881h-279v127h451v-1024q0 -512 -553 -512v131zM465 1311v245h213v-245h-213z" />
<glyph unicode="k" d="M164 0v1536h168v-924l418 453h192l-471 -512l471 -553h-194l-416 487v-487h-168z" />
<glyph unicode="l" d="M133 1368v127h455v-1368h282v-127h-454v1368h-283z" />
<glyph unicode="m" d="M61 0v1014q117 72 277 71q115 0 174 -51q84 51 195 51q152 0 204 -54t52 -212v-819h-160v819q0 80 -21.5 107.5t-79.5 27.5q-68 0 -108 -34v-920h-160v819q0 80 -21.5 107.5t-78.5 27.5q-68 0 -109 -34v-920h-164z" />
<glyph unicode="n" d="M143 0v1004q147 82 338 81q231 0 315.5 -74.5t84.5 -273.5v-737h-164v737q0 121 -52.5 169t-183.5 48q-100 0 -170 -55v-899h-168z" />
<glyph unicode="o" d="M102 532.5q0 292.5 101.5 422.5t308.5 130t308.5 -130t101.5 -422.5t-101.5 -422.5t-308.5 -130t-308.5 130t-101.5 422.5zM274 532.5q0 -237.5 55.5 -329.5t182.5 -92t182.5 92t55.5 329.5t-55.5 329.5t-182.5 92t-182.5 -92t-55.5 -329.5z" />
<glyph unicode="p" d="M154 -451v1475q154 61 338 61q213 0 316 -131t103 -422q0 -293 -102 -422.5t-297 -129.5q-98 0 -190 40v-471h-168zM322 170q76 -63 190 -64q231 0 231 426q0 422 -251 422q-96 0 -170 -24v-760z" />
<glyph unicode="q" d="M113 532q0 291 103 422t316 131q184 0 338 -61v-1475h-168v471q-92 -41 -190 -40q-195 0 -297 129.5t-102 422.5zM281 532q0 -426 231 -426q115 0 190 64v760q-74 25 -170 24q-251 0 -251 -422z" />
<glyph unicode="r" d="M225 0v983q291 102 635 102v-133q-248 0 -467 -63v-889h-168z" />
<glyph unicode="s" d="M164 799q0 139 93 212.5t275 73.5q158 0 308 -41v-133q-160 47 -297 47q-211 0 -211 -159q0 -66 41 -105t149 -69q211 -57 285 -131t74 -217.5t-101.5 -220t-287.5 -76.5q-172 0 -318 61v137q162 -72 297 -72q125 0 181.5 41t56.5 129q0 80 -43 125t-164 80 q-186 53 -262 126t-76 192z" />
<glyph unicode="t" d="M133 897v127h205v389h168v-389h364v-127h-364v-590q0 -119 30.5 -157.5t129.5 -38.5q96 0 184 26v-137q-94 -20 -205 -20q-172 0 -239.5 66.5t-67.5 240.5v610h-205z" />
<glyph unicode="u" d="M154 328v737h163v-737q0 -127 45.5 -172t169.5 -45q98 0 170 45v909h168v-1004q-147 -82 -338 -81q-219 0 -298.5 73.5t-79.5 274.5z" />
<glyph unicode="v" d="M102 1065h177l235 -922h4l236 922h168l-308 -1065h-204z" />
<glyph unicode="w" d="M41 1065h168l82 -860h4l149 860h156l133 -942h4l99 942h147l-143 -1065h-209l-131 881h-4l-148 -881h-164z" />
<glyph unicode="x" d="M113 0l297 532l-297 533h180l221 -430h4l221 430h172l-297 -533l297 -532h-184l-217 430h-4l-217 -430h-176z" />
<glyph unicode="y" d="M92 1065h166l266 -840h4l250 840h174l-491 -1516h-170l160 471z" />
<glyph unicode="z" d="M164 0v127l508 807v4h-508v127h696v-127l-508 -807v-4h508v-127h-696z" />
<glyph unicode="{" d="M133 584v123h109q92 0 136 60t44 196v307q0 162 70.5 234.5t220.5 72.5h157v-111h-102q-127 0 -161 -38.5t-34 -186.5v-289q0 -125 -40.5 -194.5t-133.5 -110.5v-4q92 -41 133 -110.5t41 -194.5v-289q0 -147 34 -186t161 -39h102v-111h-157q-150 0 -220.5 73t-70.5 234 v308q0 135 -44 195.5t-136 60.5h-109z" />
<glyph unicode="|" d="M436 -451v2110h152v-2110h-152z" />
<glyph unicode="}" d="M154 -176h102q127 0 161 39t34 186v289q0 125 40.5 194.5t133.5 110.5v4q-92 41 -133 110.5t-41 194.5v289q0 147 -34 186t-161 39h-102v111h157q150 0 220.5 -72.5t70.5 -234.5v-307q0 -135 44 -195.5t136 -60.5h109v-123h-109q-92 0 -136 -60.5t-44 -195.5v-308 q0 -162 -70.5 -234.5t-220.5 -72.5h-157v111z" />
<glyph unicode="~" d="M102 451v122l244 140q84 48 115 48h1q30 -1 79 -59l71 -81q16 -20 25.5 -20.5t38.5 15.5l246 142v-123l-244 -139q-84 -48 -115 -49h-1q-30 1 -79 59l-71 82q-16 20 -25.5 20t-38.5 -16z" />
<glyph unicode="&#xa0;" />
<glyph unicode="&#xa1;" d="M399 778v266h226v-266h-226zM410 -451l20 1055h164l20 -1055h-204z" />
<glyph unicode="&#xa2;" d="M164 532q0 469 338 541v340h123v-328q121 0 235 -51v-133q-109 57 -225 57h-10v-852h10q117 0 225 58v-133q-115 -51 -235 -51v-349h-123v361q-338 71 -338 540zM336 532.5q0 -305.5 166 -395.5v791q-166 -90 -166 -395.5z" />
<glyph unicode="&#xa3;" d="M139 0v143q63 6 105.5 91t42.5 237v225h-133v123h133v277q0 203 92 311.5t256 108.5q98 0 194 -39v-138q-84 41 -178 41q-96 0 -144 -60t-48 -196v-305h340v-123h-340v-233q0 -244 -109 -324v-4h535v-135h-746z" />
<glyph unicode="&#xa4;" d="M70 393l141 142q-68 94 -68 212.5t68 213.5l-141 141l88 88l141 -141q94 68 213 67.5t213 -67.5l141 141l88 -88l-141 -141q68 -94 68 -213t-68 -213l141 -142l-88 -88l-141 141q-94 -68 -213 -67.5t-213 67.5l-141 -141zM276 747.5q0 -98.5 69 -167t167 -68.5t167 68.5 t69 167t-69 167t-167 68.5t-167 -68.5t-69 -167z" />
<glyph unicode="&#xa5;" d="M61 1495h185l268 -747h4l270 747h175l-361 -889h299v-135h-303v-471h-172v471h-303v135h299z" />
<glyph unicode="&#xa6;" d="M434 -287v738h156v-738h-156zM434 758v737h156v-737h-156z" />
<glyph unicode="&#xa7;" d="M133 1171q0 158 102.5 251.5t276.5 93.5t338 -70v-139q-172 76 -338 75q-102 0 -161.5 -52t-59.5 -142q0 -156 211 -211q201 -53 292 -144.5t91 -228.5q0 -201 -162 -301q168 -88 168 -266q0 -158 -102.5 -251t-276.5 -93t-338 69v140q172 -76 338 -76q102 0 161.5 52 t59.5 142q0 156 -211 211q-201 53 -292 144.5t-91 228.5q0 201 162 301q-168 88 -168 266zM283 614q0 -184 239 -241q18 -4 51 -13q72 16 120 82t48 152q0 184 -239 242q-18 4 -51 12q-72 -16 -120 -82t-48 -152z" />
<glyph unicode="&#xa8;" d="M266 1249v267h164v-267h-164zM594 1249v267h164v-267h-164z" />
<glyph unicode="&#xa9;" d="M20 747.5q0 321.5 137.5 498.5t354.5 177t354.5 -177t137.5 -498.5t-137.5 -498.5t-354.5 -177t-354.5 177t-137.5 498.5zM123 747.5q0 -266.5 104.5 -420t284.5 -153.5t284.5 153.5t104.5 420t-104.5 420t-284.5 153.5t-284.5 -153.5t-104.5 -420zM262 747.5 q0 421.5 275 421.5q84 0 159 -28v-109q-78 31 -139 31q-84 0 -128 -68.5t-44 -246.5q0 -315 176 -316q66 0 141 37v-113q-74 -31 -161 -30q-279 0 -279 421.5z" />
<glyph unicode="&#xaa;" d="M143 410v112h738v-112h-738zM205 893q0 295 401 295h53v41q0 109 -29.5 141.5t-121.5 32.5q-125 0 -262 -55v110q127 49 262 49q172 0 229.5 -60.5t57.5 -250.5v-524q-119 -49 -271 -49q-150 0 -234.5 70.5t-84.5 199.5zM340 893q0 -80 49 -124t135 -44q78 0 135 25v340 h-53q-141 0 -203.5 -48.5t-62.5 -148.5z" />
<glyph unicode="&#xab;" d="M92 522v144l404 419v-194l-291 -297l291 -297v-195zM508 522v144l403 419v-194l-293 -297l293 -297v-195z" />
<glyph unicode="&#xac;" d="M127 762v145h770v-600h-164v455h-606z" />
<glyph unicode="&#xad;" d="M205 520v148h614v-148h-614z" />
<glyph unicode="&#xae;" d="M20 747.5q0 321.5 137.5 498.5t354.5 177t354.5 -177t137.5 -498.5t-137.5 -498.5t-354.5 -177t-354.5 177t-137.5 498.5zM123 747.5q0 -266.5 104.5 -420t284.5 -153.5t284.5 153.5t104.5 420t-104.5 420t-284.5 153.5t-284.5 -153.5t-104.5 -420zM303 336v819 q88 16 193 16q137 0 199.5 -58t62.5 -189q0 -170 -117 -222l-2 -2q39 -27 72 -135l69 -229h-133l-63 233q-16 57 -37 77t-60 20h-55v-330h-129zM432 774h45q86 0 121 32t35 118q0 74 -34 106.5t-107 32.5q-35 0 -60 -6v-283z" />
<glyph unicode="&#xaf;" d="M164 1341v113h696v-113h-696z" />
<glyph unicode="&#xb0;" d="M225 1229q0 119 84 203t203 84t203 -84t84 -203t-84 -203t-203 -84t-203 84t-84 203zM369 1228.5q0 -59.5 42 -101.5t101 -42t101 42t42 101.5t-42 101.5t-101 42t-101 -42t-42 -101.5z" />
<glyph unicode="&#xb1;" d="M113 66h798v-148h-798v148zM113 745v148h315v438h168v-438h315v-148h-315v-438h-168v438h-315z" />
<glyph unicode="&#xb2;" d="M295 598v98q305 362 305 568q0 82 -27.5 113.5t-89.5 31.5q-86 0 -188 -80v107q100 72 211 71q217 0 217 -235q0 -217 -297 -574v-2h303v-98h-434z" />
<glyph unicode="&#xb3;" d="M283 627v108q92 -51 186 -51q158 0 158 172q0 92 -48.5 133t-162.5 41h-23v100h23q203 0 202 158q0 123 -139 123q-82 0 -178 -49v102q109 43 205 43q115 0 173 -53t58 -151q0 -168 -147 -220v-2q160 -37 160 -229q0 -266 -267 -266q-102 0 -200 41z" />
<glyph unicode="&#xb4;" d="M307 1208l225 348h246l-307 -348h-164z" />
<glyph unicode="&#xb5;" d="M154 -451v1516h163v-737q0 -127 45.5 -172t169.5 -45q98 0 170 45v909h168v-1004q-147 -82 -338 -81q-135 0 -215 26v-457h-163z" />
<glyph unicode="&#xb6;" d="M98 1024q0 195 108.5 333t260.5 138h397v-1782h-143v1639h-111v-1639h-143v840q-152 0 -260.5 138t-108.5 333z" />
<glyph unicode="&#xb7;" d="M379 440v308h266v-308h-266z" />
<glyph unicode="&#xb8;" d="M242 -262q86 -45 188 -45q76 0 120 39t44 104q0 98 -72 174h158q74 -102 74 -215q0 -104 -74 -175t-229 -71q-109 0 -209 39v150z" />
<glyph unicode="&#xb9;" d="M297 1262v108l215 125h123v-897h-123v780l-2 2z" />
<glyph unicode="&#xba;" d="M143 410v112h738v-112h-738zM184 1064.5q0 233.5 81 338t247 104.5t247 -104.5t81 -338t-81 -337.5t-247 -104t-247 104t-81 337.5zM322 1064.5q0 -190.5 45 -264t145 -73.5t145 73.5t45 264t-45 264.5t-145 74t-145 -74t-45 -264.5z" />
<glyph unicode="&#xbb;" d="M113 102v195l293 297l-293 297v194l403 -419v-144zM528 102v195l291 297l-291 297v194l404 -419v-144z" />
<glyph unicode="&#xbc;" d="M31 102l819 779h143l-819 -779h-143zM66 1262v108l215 125h122v-897h-122v780l-2 2zM457 -154l301 600h131v-600h104v-96h-104v-201h-119v201h-313v96zM555 -152v-2h215v424h-4z" />
<glyph unicode="&#xbd;" d="M31 102l819 779h143l-819 -779h-143zM66 1262v108l215 125h122v-897h-122v780l-2 2zM537 281v106q100 72 211 72q217 0 217 -236q0 -217 -297 -573v-2h303v-99h-434v99q305 362 305 567q0 82 -28 113.5t-89 31.5q-86 1 -188 -79z" />
<glyph unicode="&#xbe;" d="M31 102l819 779h143l-819 -779h-143zM63 627v108q92 -51 187 -51q158 0 158 172q0 92 -48.5 133t-162.5 41h-21v100h21q203 0 202 158q0 123 -139 123q-82 0 -178 -49v102q109 43 205 43q115 0 173 -53t58 -151q0 -168 -147 -220v-2q160 -37 159 -229q0 -266 -266 -266 q-103 0 -201 41zM457 -154l301 600h131v-600h104v-96h-104v-201h-119v201h-313v96zM555 -152v-2h215v424h-4z" />
<glyph unicode="&#xbf;" d="M113 -143q0 80 26.5 148.5t55 105t84.5 94.5q59 61 89.5 102t61.5 121t31 176h164q0 -113 -34 -208t-66.5 -139t-96.5 -116q-51 -57 -73.5 -86.5t-46 -84t-23.5 -113.5q0 -193 237 -193q174 0 369 125v-168q-190 -92 -389 -92q-186 0 -287.5 86t-101.5 242zM430 778v266 h225v-266h-225z" />
<glyph unicode="&#xc0;" d="M41 0l369 1495h204l369 -1495h-180l-98 438h-394l-98 -438h-172zM246 1966h246l225 -348h-164zM340 569h336l-166 742h-4z" />
<glyph unicode="&#xc1;" d="M41 0l369 1495h204l369 -1495h-180l-98 438h-394l-98 -438h-172zM307 1618l225 348h246l-307 -348h-164zM340 569h336l-166 742h-4z" />
<glyph unicode="&#xc2;" d="M41 0l369 1495h204l369 -1495h-180l-98 438h-394l-98 -438h-172zM123 1618l266 348h246l266 -348h-221l-166 266h-4l-166 -266h-221zM340 569h336l-166 742h-4z" />
<glyph unicode="&#xc3;" d="M41 0l369 1495h204l369 -1495h-180l-98 438h-394l-98 -438h-172zM174 1628q0 178 33 248t104 70q76 0 217 -107q102 -78 138 -78q16 0 23 10.5t12.5 46t5.5 107.5h143q0 -178 -33 -247.5t-104 -69.5q-74 0 -217 108q-98 76 -138 76q-16 0 -23 -10t-12.5 -46t-5.5 -108 h-143zM340 569h336l-166 742h-4z" />
<glyph unicode="&#xc4;" d="M41 0l369 1495h204l369 -1495h-180l-98 438h-394l-98 -438h-172zM266 1659v266h164v-266h-164zM340 569h336l-166 742h-4zM594 1659v266h164v-266h-164z" />
<glyph unicode="&#xc5;" d="M41 0l369 1495h204l369 -1495h-180l-98 438h-394l-98 -438h-172zM246 1833q0 111 77.5 188.5t188.5 77.5t188.5 -77.5t77.5 -188.5t-77.5 -188.5t-188.5 -77.5t-188.5 77.5t-77.5 188.5zM340 569h336l-166 742h-4zM369 1833q0 -59 42 -101t101 -42t101 42t42 101t-42 101 t-101 42t-101 -42t-42 -101z" />
<glyph unicode="&#xc6;" d="M41 0l332 1495h590v-135h-297v-479h276v-131h-276v-615h297v-135h-455v438h-221l-88 -438h-158zM313 569h195v793h-35z" />
<glyph unicode="&#xc7;" d="M113 768q0 377 132 562.5t369 185.5q129 0 246 -41v-410h-168v303q-37 8 -57 8q-162 0 -254 -148.5t-92 -459.5q0 -653 346 -653q111 0 215 63v-147q-63 -33 -152 -45q55 -88 56 -191q0 -104 -74 -175t-229 -71q-109 0 -209 39v150q86 -45 188 -45q76 0 120 39t44 104 q0 78 -49 148q-432 49 -432 784z" />
<glyph unicode="&#xc8;" d="M174 0v1495h676v-135h-504v-481h483v-131h-483v-613h504v-135h-676zM246 1966h246l225 -348h-164z" />
<glyph unicode="&#xc9;" d="M174 0v1495h676v-135h-504v-481h483v-131h-483v-613h504v-135h-676zM307 1618l225 348h246l-307 -348h-164z" />
<glyph unicode="&#xca;" d="M123 1618l266 348h246l266 -348h-221l-166 266h-4l-166 -266h-221zM174 0v1495h676v-135h-504v-481h483v-131h-483v-613h504v-135h-676z" />
<glyph unicode="&#xcb;" d="M174 0v1495h676v-135h-504v-481h483v-131h-483v-613h504v-135h-676zM266 1659v266h164v-266h-164zM594 1659v266h164v-266h-164z" />
<glyph unicode="&#xcc;" d="M184 0v135h240v1225h-240v135h656v-135h-240v-1225h240v-135h-656zM246 1966h246l225 -348h-164z" />
<glyph unicode="&#xcd;" d="M184 0v135h240v1225h-240v135h656v-135h-240v-1225h240v-135h-656zM307 1618l225 348h246l-307 -348h-164z" />
<glyph unicode="&#xce;" d="M123 1618l266 348h246l266 -348h-221l-166 266h-4l-166 -266h-221zM184 0v135h240v1225h-240v135h656v-135h-240v-1225h240v-135h-656z" />
<glyph unicode="&#xcf;" d="M184 0v135h240v1225h-240v135h656v-135h-240v-1225h240v-135h-656zM266 1659v266h164v-266h-164zM594 1659v266h164v-266h-164z" />
<glyph unicode="&#xd0;" d="M20 688v176h144v611q137 41 280 41q258 0 383 -172.5t125 -575.5q0 -430 -125 -609t-383 -179q-143 0 -280 40v668h-144zM336 137q41 -23 108 -22q117 0 187.5 52t111.5 198.5t41 402.5q0 336 -84 474t-256 138q-68 0 -108 -22v-494h248v-176h-248v-551z" />
<glyph unicode="&#xd1;" d="M143 0v1495h172l398 -1147h4v1147h164v-1495h-164l-398 1147h-4v-1147h-172zM174 1628q0 178 33 248t104 70q76 0 217 -107q102 -78 138 -78q16 0 23 10.5t12.5 46t5.5 107.5h143q0 -178 -33 -247.5t-104 -69.5q-74 0 -217 108q-98 76 -138 76q-16 0 -23 -10t-12.5 -46 t-5.5 -108h-143z" />
<glyph unicode="&#xd2;" d="M82 748q0 426 102.5 597t327.5 171t327.5 -171t102.5 -597t-102.5 -597t-327.5 -171t-327.5 171t-102.5 597zM246 747.5q0 -356.5 64.5 -494.5t201.5 -138t201.5 138t64.5 494.5t-64.5 494.5t-201.5 138t-201.5 -138t-64.5 -494.5zM246 1966h246l225 -348h-164z" />
<glyph unicode="&#xd3;" d="M82 748q0 426 102.5 597t327.5 171t327.5 -171t102.5 -597t-102.5 -597t-327.5 -171t-327.5 171t-102.5 597zM246 747.5q0 -356.5 64.5 -494.5t201.5 -138t201.5 138t64.5 494.5t-64.5 494.5t-201.5 138t-201.5 -138t-64.5 -494.5zM307 1618l225 348h246l-307 -348h-164z " />
<glyph unicode="&#xd4;" d="M82 748q0 426 102.5 597t327.5 171t327.5 -171t102.5 -597t-102.5 -597t-327.5 -171t-327.5 171t-102.5 597zM123 1618l266 348h246l266 -348h-221l-166 266h-4l-166 -266h-221zM246 747.5q0 -356.5 64.5 -494.5t201.5 -138t201.5 138t64.5 494.5t-64.5 494.5t-201.5 138 t-201.5 -138t-64.5 -494.5z" />
<glyph unicode="&#xd5;" d="M82 748q0 426 102.5 597t327.5 171t327.5 -171t102.5 -597t-102.5 -597t-327.5 -171t-327.5 171t-102.5 597zM174 1628q0 178 33 248t104 70q76 0 217 -107q102 -78 138 -78q16 0 23 10.5t12.5 46t5.5 107.5h143q0 -178 -33 -247.5t-104 -69.5q-74 0 -217 108 q-98 76 -138 76q-16 0 -23 -10t-12.5 -46t-5.5 -108h-143zM246 747.5q0 -356.5 64.5 -494.5t201.5 -138t201.5 138t64.5 494.5t-64.5 494.5t-201.5 138t-201.5 -138t-64.5 -494.5z" />
<glyph unicode="&#xd6;" d="M82 748q0 426 102.5 597t327.5 171t327.5 -171t102.5 -597t-102.5 -597t-327.5 -171t-327.5 171t-102.5 597zM246 747.5q0 -356.5 64.5 -494.5t201.5 -138t201.5 138t64.5 494.5t-64.5 494.5t-201.5 138t-201.5 -138t-64.5 -494.5zM266 1659v266h164v-266h-164zM594 1659 v266h164v-266h-164z" />
<glyph unicode="&#xd7;" d="M106 160l306 434l-306 434l136 94l270 -385l270 385l136 -94l-306 -434l306 -434l-136 -94l-270 385l-270 -385z" />
<glyph unicode="&#xd8;" d="M49 16l103 203q-70 176 -70 529q0 426 102.5 597t327.5 171q162 0 256 -82l59 118l148 -73l-103 -203q70 -176 70 -528q0 -426 -102.5 -597t-327.5 -171q-162 0 -256 81l-59 -118zM246 748q0 -186 18 -310l428 846q-61 96 -180 96q-137 0 -201.5 -138t-64.5 -494z M332 211q61 -96 180 -96q137 0 201.5 138t64.5 495q0 186 -18 309z" />
<glyph unicode="&#xd9;" d="M123 369v1126h172v-1085q0 -162 53 -228.5t168 -66.5q117 0 169 65.5t52 229.5v1085h164v-1126q0 -205 -94 -297t-295 -92t-295 92t-94 297zM246 1966h246l225 -348h-164z" />
<glyph unicode="&#xda;" d="M123 369v1126h172v-1085q0 -162 53 -228.5t168 -66.5q117 0 169 65.5t52 229.5v1085h164v-1126q0 -205 -94 -297t-295 -92t-295 92t-94 297zM307 1618l225 348h246l-307 -348h-164z" />
<glyph unicode="&#xdb;" d="M123 369v1126h172v-1085q0 -162 53 -228.5t168 -66.5q117 0 169 65.5t52 229.5v1085h164v-1126q0 -205 -94 -297t-295 -92t-295 92t-94 297zM123 1618l266 348h246l266 -348h-221l-166 266h-4l-166 -266h-221z" />
<glyph unicode="&#xdc;" d="M123 369v1126h172v-1085q0 -162 53 -228.5t168 -66.5q117 0 169 65.5t52 229.5v1085h164v-1126q0 -205 -94 -297t-295 -92t-295 92t-94 297zM266 1659v266h164v-266h-164zM594 1659v266h164v-266h-164z" />
<glyph unicode="&#xdd;" d="M61 1495h185l268 -727h4l270 727h175l-365 -901v-594h-172v594zM307 1618l225 348h246l-307 -348h-164z" />
<glyph unicode="&#xde;" d="M160 0v1495h172v-246q78 10 160 11q231 0 338.5 -109t107.5 -342q0 -246 -106.5 -353.5t-335.5 -107.5q-72 0 -164 10v-358h-172zM332 494q61 -10 143 -11q152 0 222.5 74t70.5 252q0 166 -70.5 240.5t-222.5 74.5q-84 0 -143 -16v-614z" />
<glyph unicode="&#xdf;" d="M133 0v1102q0 256 85 355t298 99q180 0 277.5 -77.5t97.5 -218.5q0 -82 -48 -178.5t-95.5 -169t-47.5 -97.5q0 -23 39 -80t87 -117.5t87 -145.5t39 -159q0 -164 -80.5 -248.5t-232.5 -84.5q-111 0 -246 36l15 134q117 -37 202 -37q164 0 164 190q0 78 -62.5 182.5 t-125 194.5t-62.5 135q0 49 97.5 213t97.5 242q0 80 -47 116.5t-150 36.5q-125 0 -171 -63.5t-46 -253.5v-1106h-172z" />
<glyph unicode="&#xe0;" d="M133 317q0 369 502 369h67v51q0 133 -36.5 175t-153.5 42q-160 0 -328 -67v137q168 61 328 61q213 0 285.5 -75.5t72.5 -313.5v-655q-145 -61 -338 -61q-186 0 -292.5 88.5t-106.5 248.5zM246 1556h246l225 -348h-164zM301 317q0 -100 62.5 -155.5t168.5 -55.5 q96 0 170 31v426h-67q-178 0 -256 -60.5t-78 -185.5z" />
<glyph unicode="&#xe1;" d="M133 317q0 369 502 369h67v51q0 133 -36.5 175t-153.5 42q-160 0 -328 -67v137q168 61 328 61q213 0 285.5 -75.5t72.5 -313.5v-655q-145 -61 -338 -61q-186 0 -292.5 88.5t-106.5 248.5zM301 317q0 -100 62.5 -155.5t168.5 -55.5q96 0 170 31v426h-67q-178 0 -256 -60.5 t-78 -185.5zM307 1208l225 348h246l-307 -348h-164z" />
<glyph unicode="&#xe2;" d="M123 1208l266 348h246l266 -348h-221l-166 267h-4l-166 -267h-221zM133 317q0 369 502 369h67v51q0 133 -36.5 175t-153.5 42q-160 0 -328 -67v137q168 61 328 61q213 0 285.5 -75.5t72.5 -313.5v-655q-145 -61 -338 -61q-186 0 -292.5 88.5t-106.5 248.5zM301 317 q0 -100 62.5 -155.5t168.5 -55.5q96 0 170 31v426h-67q-178 0 -256 -60.5t-78 -185.5z" />
<glyph unicode="&#xe3;" d="M133 317q0 369 502 369h67v51q0 133 -36.5 175t-153.5 42q-160 0 -328 -67v137q168 61 328 61q213 0 285.5 -75.5t72.5 -313.5v-655q-145 -61 -338 -61q-186 0 -292.5 88.5t-106.5 248.5zM174 1198q0 178 33 248t104 70q76 0 217 -107q102 -78 138 -78q16 0 23 10.5 t12.5 46t5.5 107.5h143q0 -178 -33 -247.5t-104 -69.5q-74 0 -217 108q-98 76 -138 76q-16 0 -23 -10.5t-12.5 -46t-5.5 -107.5h-143zM301 317q0 -100 62.5 -155.5t168.5 -55.5q96 0 170 31v426h-67q-178 0 -256 -60.5t-78 -185.5z" />
<glyph unicode="&#xe4;" d="M133 317q0 369 502 369h67v51q0 133 -36.5 175t-153.5 42q-160 0 -328 -67v137q168 61 328 61q213 0 285.5 -75.5t72.5 -313.5v-655q-145 -61 -338 -61q-186 0 -292.5 88.5t-106.5 248.5zM266 1249v267h164v-267h-164zM301 317q0 -100 62.5 -155.5t168.5 -55.5 q96 0 170 31v426h-67q-178 0 -256 -60.5t-78 -185.5zM594 1249v267h164v-267h-164z" />
<glyph unicode="&#xe5;" d="M133 317q0 369 502 369h67v51q0 133 -36.5 175t-153.5 42q-160 0 -328 -67v137q168 61 328 61q213 0 285.5 -75.5t72.5 -313.5v-655q-145 -61 -338 -61q-186 0 -292.5 88.5t-106.5 248.5zM246 1402.5q0 110.5 77.5 188.5t188.5 78t188.5 -78t77.5 -188.5t-77.5 -188 t-188.5 -77.5t-188.5 77.5t-77.5 188zM301 317q0 -100 62.5 -155.5t168.5 -55.5q96 0 170 31v426h-67q-178 0 -256 -60.5t-78 -185.5zM369 1402.5q0 -59.5 42 -101t101 -41.5t101 41.5t42 101t-42 101.5t-101 42t-101 -42t-42 -101.5z" />
<glyph unicode="&#xe6;" d="M41 297q0 190 92 289.5t266 99.5h39v53q0 127 -26.5 171t-94.5 44q-45 0 -119.5 -23.5t-125.5 -53.5v141q51 27 124.5 47t120.5 20q166 0 220 -124q68 125 200 124q123 0 184.5 -116.5t61.5 -384.5q0 -74 -4 -97h-379q4 -219 45 -300t123 -81q86 0 184 60v-135 q-96 -51 -194 -51q-174 0 -244 196q-37 -106 -97.5 -151t-150.5 -45q-100 0 -162.5 82.5t-62.5 234.5zM184 307q0 -98 29 -149.5t78 -51.5q76 0 110.5 93.5t36.5 363.5h-39q-102 0 -158.5 -65.5t-56.5 -190.5zM600 614h244q-2 199 -29 270.5t-88 71.5q-57 0 -89 -74.5 t-38 -267.5z" />
<glyph unicode="&#xe7;" d="M133 532q0 553 461 553q139 0 246 -30v-348h-164v241q-31 6 -72 6q-141 0 -220 -105.5t-79 -316.5q0 -213 80 -319.5t219 -106.5q117 0 225 58v-133q-72 -31 -133 -43q57 -88 57.5 -192.5t-73.5 -175.5t-229 -71q-109 0 -209 39v150q86 -45 188 -45q76 0 120 39t44 104 q0 80 -47 146q-199 14 -306.5 150t-107.5 400z" />
<glyph unicode="&#xe8;" d="M113 532q0 289 102 421t307 132q186 0 277.5 -127t91.5 -415q0 -14 -4 -56h-602q8 -201 78.5 -291t199.5 -90q123 0 277 58v-133q-152 -51 -287 -51q-440 -1 -440 552zM246 1556h246l225 -348h-164zM287 614h436q-6 342 -201 342q-115 0 -171 -76t-64 -266z" />
<glyph unicode="&#xe9;" d="M113 532q0 289 102 421t307 132q186 0 277.5 -127t91.5 -415q0 -14 -4 -56h-602q8 -201 78.5 -291t199.5 -90q123 0 277 58v-133q-152 -51 -287 -51q-440 -1 -440 552zM287 614h436q-6 342 -201 342q-115 0 -171 -76t-64 -266zM307 1208l225 348h246l-307 -348h-164z" />
<glyph unicode="&#xea;" d="M113 532q0 289 102 421t307 132q186 0 277.5 -127t91.5 -415q0 -14 -4 -56h-602q8 -201 78.5 -291t199.5 -90q123 0 277 58v-133q-152 -51 -287 -51q-440 -1 -440 552zM123 1208l266 348h246l266 -348h-221l-166 267h-4l-166 -267h-221zM287 614h436q-6 342 -201 342 q-115 0 -171 -76t-64 -266z" />
<glyph unicode="&#xeb;" d="M113 532q0 289 102 421t307 132q186 0 277.5 -127t91.5 -415q0 -14 -4 -56h-602q8 -201 78.5 -291t199.5 -90q123 0 277 58v-133q-152 -51 -287 -51q-440 -1 -440 552zM266 1249v267h164v-267h-164zM287 614h436q-6 342 -201 342q-115 0 -171 -76t-64 -266zM594 1249v267 h164v-267h-164z" />
<glyph unicode="&#xec;" d="M217 938v127h451v-1065h-172v938h-279zM246 1556h246l225 -348h-164z" />
<glyph unicode="&#xed;" d="M217 938v127h451v-1065h-172v938h-279zM307 1208l225 348h246l-307 -348h-164z" />
<glyph unicode="&#xee;" d="M123 1208l266 348h246l266 -348h-221l-166 267h-4l-166 -267h-221zM217 938v127h451v-1065h-172v938h-279z" />
<glyph unicode="&#xef;" d="M217 938v127h451v-1065h-172v938h-279zM266 1249v267h164v-267h-164zM594 1249v267h164v-267h-164z" />
<glyph unicode="&#xf0;" d="M102 532.5q0 552.5 410 552.5q55 0 121 -16l2 4q-45 90 -109 148l-323 -144l-58 129l240 109q-80 35 -170 47v154q197 -25 346 -123l270 120l58 -129l-207 -94q240 -256 240 -758q0 -553 -410 -552.5t-410 553zM270 532.5q0 -231.5 58.5 -326.5t183.5 -95t183.5 95 t58.5 326.5t-58.5 326.5t-183.5 95t-183.5 -95t-58.5 -326.5z" />
<glyph unicode="&#xf1;" d="M143 0v1004q147 82 338 81q231 0 315.5 -74.5t84.5 -273.5v-737h-164v737q0 121 -52.5 169t-183.5 48q-100 0 -170 -55v-899h-168zM174 1198q0 178 33 248t104 70q76 0 217 -107q102 -78 138 -78q16 0 23 10.5t12.5 46t5.5 107.5h143q0 -178 -33 -247.5t-104 -69.5 q-74 0 -217 108q-98 76 -138 76q-16 0 -23 -10.5t-12.5 -46t-5.5 -107.5h-143z" />
<glyph unicode="&#xf2;" d="M102 532.5q0 292.5 101.5 422.5t308.5 130t308.5 -130t101.5 -422.5t-101.5 -422.5t-308.5 -130t-308.5 130t-101.5 422.5zM246 1556h246l225 -348h-164zM274 532.5q0 -237.5 55.5 -329.5t182.5 -92t182.5 92t55.5 329.5t-55.5 329.5t-182.5 92t-182.5 -92t-55.5 -329.5z " />
<glyph unicode="&#xf3;" d="M102 532.5q0 292.5 101.5 422.5t308.5 130t308.5 -130t101.5 -422.5t-101.5 -422.5t-308.5 -130t-308.5 130t-101.5 422.5zM274 532.5q0 -237.5 55.5 -329.5t182.5 -92t182.5 92t55.5 329.5t-55.5 329.5t-182.5 92t-182.5 -92t-55.5 -329.5zM307 1208l225 348h246 l-307 -348h-164z" />
<glyph unicode="&#xf4;" d="M102 532.5q0 292.5 101.5 422.5t308.5 130t308.5 -130t101.5 -422.5t-101.5 -422.5t-308.5 -130t-308.5 130t-101.5 422.5zM123 1208l266 348h246l266 -348h-221l-166 267h-4l-166 -267h-221zM274 532.5q0 -237.5 55.5 -329.5t182.5 -92t182.5 92t55.5 329.5t-55.5 329.5 t-182.5 92t-182.5 -92t-55.5 -329.5z" />
<glyph unicode="&#xf5;" d="M102 532.5q0 292.5 101.5 422.5t308.5 130t308.5 -130t101.5 -422.5t-101.5 -422.5t-308.5 -130t-308.5 130t-101.5 422.5zM174 1198q0 178 33 248t104 70q76 0 217 -107q102 -78 138 -78q16 0 23 10.5t12.5 46t5.5 107.5h143q0 -178 -33 -247.5t-104 -69.5 q-74 0 -217 108q-98 76 -138 76q-16 0 -23 -10.5t-12.5 -46t-5.5 -107.5h-143zM274 532.5q0 -237.5 55.5 -329.5t182.5 -92t182.5 92t55.5 329.5t-55.5 329.5t-182.5 92t-182.5 -92t-55.5 -329.5z" />
<glyph unicode="&#xf6;" d="M102 532.5q0 292.5 101.5 422.5t308.5 130t308.5 -130t101.5 -422.5t-101.5 -422.5t-308.5 -130t-308.5 130t-101.5 422.5zM266 1249v267h164v-267h-164zM274 532.5q0 -237.5 55.5 -329.5t182.5 -92t182.5 92t55.5 329.5t-55.5 329.5t-182.5 92t-182.5 -92t-55.5 -329.5z M594 1249v267h164v-267h-164z" />
<glyph unicode="&#xf7;" d="M123 537v135h778v-135h-778zM420 0v307h184v-307h-184zM420 901v307h184v-307h-184z" />
<glyph unicode="&#xf8;" d="M63 20l105 148q-66 131 -66 364q0 293 101.5 423t308.5 130q158 0 250 -71l80 112l119 -82l-105 -147q66 -131 66 -365q0 -293 -101.5 -422.5t-308.5 -129.5q-158 0 -250 71l-80 -112zM274 532q0 -115 13 -194l389 551q-53 66 -164 65q-127 0 -182.5 -92t-55.5 -330z M348 176q53 -66 164 -65q127 0 182.5 92t55.5 329q0 115 -13 195z" />
<glyph unicode="&#xf9;" d="M154 328v737h163v-737q0 -127 45.5 -172t169.5 -45q98 0 170 45v909h168v-1004q-147 -82 -338 -81q-219 0 -298.5 73.5t-79.5 274.5zM246 1556h246l225 -348h-164z" />
<glyph unicode="&#xfa;" d="M154 328v737h163v-737q0 -127 45.5 -172t169.5 -45q98 0 170 45v909h168v-1004q-147 -82 -338 -81q-219 0 -298.5 73.5t-79.5 274.5zM307 1208l225 348h246l-307 -348h-164z" />
<glyph unicode="&#xfb;" d="M123 1208l266 348h246l266 -348h-221l-166 267h-4l-166 -267h-221zM154 328v737h163v-737q0 -127 45.5 -172t169.5 -45q98 0 170 45v909h168v-1004q-147 -82 -338 -81q-219 0 -298.5 73.5t-79.5 274.5z" />
<glyph unicode="&#xfc;" d="M154 328v737h163v-737q0 -127 45.5 -172t169.5 -45q98 0 170 45v909h168v-1004q-147 -82 -338 -81q-219 0 -298.5 73.5t-79.5 274.5zM266 1249v267h164v-267h-164zM594 1249v267h164v-267h-164z" />
<glyph unicode="&#xfd;" d="M92 1065h166l266 -840h4l250 840h174l-491 -1516h-170l160 471zM307 1208l225 348h246l-307 -348h-164z" />
<glyph unicode="&#xfe;" d="M154 -451v1987h168v-467q88 16 170 16q213 0 316 -131t103 -422q0 -293 -102 -422.5t-297 -129.5q-98 0 -190 40v-471h-168zM322 170q76 -63 190 -64q231 0 231 426q0 422 -251 422q-96 0 -170 -24v-760z" />
<glyph unicode="&#xff;" d="M92 1065h166l266 -840h4l250 840h174l-491 -1516h-170l160 471zM266 1249v267h164v-267h-164zM594 1249v267h164v-267h-164z" />
<glyph unicode="&#x152;" d="M61 747.5q0 421.5 105.5 595t325.5 173.5q80 0 141 -21h350v-135h-303v-481h283v-131h-283v-613h303v-135h-350q-61 -20 -141 -20q-219 0 -325 173t-106 594.5zM225 747.5q0 -243.5 33 -386t88 -194.5t146 -52h20v1265h-20q-90 0 -145.5 -52t-88.5 -194.5t-33 -386z" />
<glyph unicode="&#x153;" d="M41 532.5q0 552.5 287 552.5q133 0 200 -118q70 119 209 118q123 0 184.5 -116.5t61.5 -384.5q0 -74 -4 -97h-375q0 -43 -2 -63q8 -182 49 -250t117 -68q86 0 184 60v-135q-96 -51 -194 -51q-150 0 -226 126q-70 -127 -204 -126q-287 0 -287 552.5zM205 532.5 q0 -233.5 29.5 -327.5t93 -94t93.5 94t30 327.5t-30 327.5t-93.5 94t-93 -94t-29.5 -327.5zM602 614h242q-2 199 -29 270.5t-88 71.5q-55 0 -86 -68.5t-39 -242.5v-31z" />
<glyph unicode="&#x178;" d="M61 1495h185l268 -727h4l270 727h175l-365 -901v-594h-172v594zM266 1659v266h164v-266h-164zM594 1659v266h164v-266h-164z" />
<glyph unicode="&#x2c6;" d="M123 1208l266 348h246l266 -348h-221l-166 267h-4l-166 -267h-221z" />
<glyph unicode="&#x2dc;" d="M174 1198q0 178 33 248t104 70q76 0 217 -107q102 -78 138 -78q16 0 23 10.5t12.5 46t5.5 107.5h143q0 -178 -33 -247.5t-104 -69.5q-74 0 -217 108q-98 76 -138 76q-16 0 -23 -10.5t-12.5 -46t-5.5 -107.5h-143z" />
<glyph unicode="&#x2013;" d="M123 553v104h778v-104h-778z" />
<glyph unicode="&#x2014;" d="M0 553v104h1024v-104h-1024z" />
<glyph unicode="&#x2018;" d="M307 1024q76 287 225 573h144q-86 -301 -123 -573h-246z" />
<glyph unicode="&#x2019;" d="M328 1024q86 301 123 573h245q-76 -287 -225 -573h-143z" />
<glyph unicode="&#x201a;" d="M328 -266q86 301 123 573h245q-76 -287 -225 -573h-143z" />
<glyph unicode="&#x201c;" d="M164 1024q76 287 225 573h123q-86 -301 -123 -573h-225zM471 1024q76 287 225 573h123q-86 -301 -123 -573h-225z" />
<glyph unicode="&#x201d;" d="M184 1024q86 301 123 573h225q-76 -287 -225 -573h-123zM492 1024q86 301 122 573h226q-76 -287 -226 -573h-122z" />
<glyph unicode="&#x201e;" d="M184 -266q86 301 123 573h225q-76 -287 -225 -573h-123zM492 -266q86 301 122 573h226q-76 -287 -226 -573h-122z" />
<glyph unicode="&#x2022;" d="M328 594q0 78 53 131t131 53t131 -53t53 -131t-53 -131t-131 -53t-131 53t-53 131z" />
<glyph unicode="&#x2026;" horiz-adv-x="2048" d="M246 594v287h192v-287h-192zM928 594v287h192v-287h-192zM1610 594v287h192v-287h-192z" />
<glyph unicode="&#x2039;" d="M215 594l328 450h205l-332 -450l332 -451h-205z" />
<glyph unicode="&#x203a;" d="M276 143l332 451l-332 450h205l328 -450l-328 -451h-205z" />
<glyph unicode="&#x20ac;" d="M57 516v135h144v30v36v31v96h-144v135h154q29 289 138.5 413t309.5 124q137 0 259 -62v-141q-123 68 -246 67q-127 0 -200 -91t-97 -310h469v-135h-479v-30v-35v-31v-32v-35v-30h479v-135h-469q25 -219 97.5 -310t199.5 -91q123 0 246 67v-141q-121 -61 -259 -61 q-201 0 -310 123.5t-138 412.5h-154z" />
<glyph unicode="&#x2122;" d="M72 1423v72h399v-72h-158v-675h-84v675h-157zM481 748l41 747h115l76 -512h2l78 512h108l41 -747h-84l-24 634h-3l-75 -491h-92l-76 491h-2l-27 -634h-78z" />
<glyph unicode="&#xe000;" horiz-adv-x="1065" d="M0 1065h1065v-1065h-1065v1065z" />
<glyph unicode="&#xfb01;" d="M51 897v127h174v123q0 203 57.5 286t188.5 83q84 0 164 -31v-137q-61 37 -123 36q-78 0 -101.5 -48t-23.5 -220v-92h504v-1024h-162v897h-342v-897h-162v897h-174zM729 1249v307h162v-307h-162z" />
<glyph unicode="&#xfb02;" d="M51 897v127h174v174q0 162 84 240t264 78q176 0 318 -58v-1458h-162v1360q-63 25 -151 24q-106 0 -148.5 -39.5t-42.5 -136.5v-184h248v-127h-248v-897h-162v897h-174z" />
<glyph unicode="&#xfb03;" d="M16 897v127h97v174q0 166 62.5 242t189.5 76q45 0 102 -15v-133q-49 16 -86 16q-57 0 -84 -37.5t-27 -125.5v-197h197v174q0 166 61.5 242t188.5 76q45 0 102 -15v55h160v-307h-160v119q-49 16 -84 16q-57 0 -83.5 -37.5t-26.5 -125.5v-197h354v-1024h-160v897h-194v-897 h-158v897h-197v-897h-157v897h-97z" />
<glyph unicode="&#xfb04;" d="M16 897v127h97v174q0 166 62.5 242t189.5 76q45 0 102 -15v-133q-49 16 -86 16q-57 0 -84 -37.5t-27 -125.5v-197h197v174q0 164 65.5 241t200.5 77q137 0 246 -58v-1458h-160v1366q-31 18 -84 18q-59 0 -84.5 -35.5t-25.5 -127.5v-197h137v-127h-137v-897h-158v897h-197 v-897h-157v897h-97z" />
</font>
</defs>
</svg>
