<?xml version="1.0" standalone="no"?>
<!DOCTYPE svg PUBLIC "-//W3C//DTD SVG 1.1//EN" "http://www.w3.org/Graphics/SVG/1.1/DTD/svg11.dtd" >
<svg xmlns="http://www.w3.org/2000/svg">
<metadata>
This is a custom SVG webfont generated by Font Squirrel.
Copyright   : Copyrightc 2011 M FONTS PROJECT
Foundry URL : httpmplusfontssourceforgejp
</metadata>
<defs>
<font id="M+1mnlight" horiz-adv-x="1024" >
<font-face units-per-em="2048" ascent="1761" descent="-287" />
<missing-glyph horiz-adv-x="500" />
<glyph unicode=" " />
<glyph unicode="!" d="M446 0v266h132v-266h-132zM451 1495h122l-10 -1049h-102z" />
<glyph unicode="&#x22;" d="M287 1597h123l-21 -532h-82zM614 1597h123l-20 -532h-82z" />
<glyph unicode="#" d="M92 412v90h158l59 532h-141v88h149l41 373h105l-41 -373h264l41 373h102l-41 -373h144v-88h-152l-59 -532h135v-90h-145l-45 -412h-103l45 412h-266l-45 -412h-102l45 412h-148zM352 502h266l58 532h-264z" />
<glyph unicode="$" d="M164 1122q0 164 92 253t266 89h21v205h92v-211q115 -16 221 -61v-99q-109 53 -221 72v-600q137 -68 191.5 -150.5t54.5 -213.5q0 -375 -373 -375h-6v-205h-92v211q-117 18 -242 92v107q113 -82 242 -109v639q-131 66 -188.5 149.5t-57.5 206.5zM268 1122 q0 -104 57.5 -174.5t188.5 -124.5q4 -2 14.5 -5t14.5 -5v565h-15q-260 0 -260 -256zM502 117q274 0 274 289q0 111 -58.5 182t-211.5 135l-4 2v-608z" />
<glyph unicode="%" d="M82 1177.5q0 157.5 65.5 242.5t184.5 85t185.5 -85t66.5 -242.5t-66.5 -242.5t-185.5 -85t-184.5 85t-65.5 242.5zM143 395v111l738 594v-111zM182 1177.5q0 -245.5 150 -245.5q152 0 151.5 245.5t-151.5 245.5q-150 0 -150 -245.5zM440 297q0 158 66.5 243t185.5 85 t184.5 -85t65.5 -243t-65.5 -243t-184.5 -85t-185.5 85t-66.5 243zM541 297q0 -246 151 -246q150 0 150 246t-150 246q-151 0 -151 -246z" />
<glyph unicode="&#x26;" d="M78 393q0 156 80 266.5t227 157.5v4q-111 47 -174.5 143.5t-63.5 219.5q0 154 95.5 243t265.5 89q104 0 227 -25v-90q-98 27 -213 26q-131 0 -200.5 -66.5t-69.5 -193.5q0 -141 89 -226t232 -85h117v301h105v-301h172v-88h-172v-748q-150 -41 -299 -40q-205 0 -311.5 104 t-106.5 309zM184 399q0 -332 308 -331q104 0 198 26v674h-119q-174 0 -280.5 -102.5t-106.5 -266.5z" />
<glyph unicode="'" d="M446 1597h132l-25 -532h-82z" />
<glyph unicode="(" d="M276 659q0 557 383 918h109q-389 -358 -389 -918q0 -557 389 -915h-109q-383 360 -383 915z" />
<glyph unicode=")" d="M256 -256q389 358 389 915q0 559 -389 918h109q383 -360 383 -918q0 -555 -383 -915h-109z" />
<glyph unicode="*" d="M90 1190l35 108l352 -139l-22 379h114l-22 -379l352 139l35 -108l-367 -94l240 -293l-92 -68l-203 320l-203 -320l-92 68l240 293z" />
<glyph unicode="+" d="M92 594v88h367v465h106v-465h367v-88h-367v-471h-106v471h-367z" />
<glyph unicode="," d="M356 -246q90 266 146 533h145q-72 -268 -196 -533h-95z" />
<glyph unicode="-" d="M225 555v88h574v-88h-574z" />
<glyph unicode="." d="M434 0v287h156v-287h-156z" />
<glyph unicode="/" d="M111 -82l706 1577h96l-706 -1577h-96z" />
<glyph unicode="0" d="M143 747.5q0 415.5 89.5 592t279.5 176.5t279.5 -176.5t89.5 -592t-89.5 -591.5t-279.5 -176t-279.5 176t-89.5 591.5zM244 748q0 -199 18 -330l467 809q-61 201 -217 200q-59 0 -104.5 -27.5t-84 -98t-59 -209.5t-20.5 -344zM287 295q33 -127 89 -177t136 -50 q59 0 104.5 27.5t84 98t59 210t20.5 344t-24 362.5z" />
<glyph unicode="1" d="M176 1178v102l375 215h104v-1495h-106v1386l-4 3z" />
<glyph unicode="2" d="M180 1292v105q158 119 328 119q328 0 328 -379q0 -199 -122 -435.5t-419 -609.5v-4h549v-88h-664v88q293 356 420 601t127 448q0 291 -235 290q-68 0 -153 -37t-159 -98z" />
<glyph unicode="3" d="M154 43v98q147 -74 292 -73q156 0 232 87t76 271q0 182 -95.5 265t-306.5 83h-35v86h35q383 0 383 311q0 123 -64.5 189.5t-185.5 66.5q-152 0 -303 -79v96q158 72 307 72q164 0 257.5 -88.5t93.5 -243.5q0 -291 -265 -361v-4q285 -61 285 -399q0 -440 -409 -440 q-147 0 -297 63z" />
<glyph unicode="4" d="M82 373v88l541 1034h114v-1034h185v-88h-185v-373h-106v373h-549zM180 461h451v860h-4l-447 -854v-6z" />
<glyph unicode="5" d="M201 45v98q135 -76 260 -75q150 0 223.5 94t73.5 299q0 197 -61.5 288t-188.5 91q-121 0 -201 -92h-98l27 747h583v-88h-483l-23 -549h4q88 68 211 68q168 0 252 -113t84 -352q0 -266 -103.5 -373.5t-293.5 -107.5q-135 -1 -266 65z" />
<glyph unicode="6" d="M160 655q0 326 50 518.5t139 267.5t235 75q123 0 231 -48v-96q-109 55 -221 55q-106 0 -173 -48t-110 -186t-51 -382h4q47 84 122 130t163 46q168 0 252 -117.5t84 -373.5q0 -276 -88 -396t-269 -120q-193 0 -280.5 147t-87.5 528zM270 479q12 -233 76 -322t182 -89 q57 0 98.5 16t79 59t57 131t19.5 222q0 213 -59 309t-184 96q-131 0 -205 -109q-65 -96 -65 -265q0 -23 1 -48z" />
<glyph unicode="7" d="M168 1407v88h688v-88q-270 -633 -436 -1407h-111q168 752 451 1403v4h-592z" />
<glyph unicode="8" d="M123 379q0 145 73.5 250.5t211.5 161.5v4q-117 51 -182.5 150t-65.5 226q0 162 93 253.5t259 91.5q168 0 260 -91.5t92 -253.5q0 -127 -65.5 -223t-182.5 -147v-4q285 -113 285 -418q0 -197 -102.5 -298t-291 -101t-286.5 101t-98 298zM221 379q0 -311 291 -311 q283 0 283 311q0 289 -287 373q-287 -86 -287 -373zM264 1171q0 -127 64.5 -214t183.5 -121q256 78 256 335q0 123 -65.5 189.5t-186.5 66.5q-252 0 -252 -256z" />
<glyph unicode="9" d="M139 1020q0 496 357 496q201 0 284.5 -144.5t83.5 -531.5q0 -328 -49 -520.5t-139 -266t-236 -73.5q-123 0 -231 47v96q109 -55 221 -55q106 0 173 47t110 185t51 384h-4q-47 -84 -122 -130t-163 -46q-336 0 -336 512zM244 1020q0 -426 241 -426q127 0 204 116 q66 100 66 270q0 27 -1 56q-12 219 -72.5 305t-185.5 86q-119 0 -185.5 -84.5t-66.5 -322.5z" />
<glyph unicode=":" d="M440 0v287h144v-287h-144zM440 778v287h144v-287h-144z" />
<glyph unicode=";" d="M326 -246q90 266 145 533h145q-72 -268 -196 -533h-94zM461 778v287h143v-287h-143z" />
<glyph unicode="&#x3c;" d="M123 584v102l758 512v-106l-686 -455v-4l686 -455v-106z" />
<glyph unicode="=" d="M133 379v88h758v-88h-758zM133 803v88h758v-88h-758z" />
<glyph unicode="&#x3e;" d="M143 72v106l686 455v4l-686 455v106l758 -512v-102z" />
<glyph unicode="?" d="M143 1317v106q184 92 373 93q184 0 284.5 -84t100.5 -234q0 -88 -29.5 -161.5t-61.5 -111.5t-91 -98q-63 -63 -94 -100t-62 -113.5t-31 -167.5h-102q0 102 35 190.5t67.5 128.5t98.5 109q57 57 83.5 91t53.5 96.5t27 136.5q0 111 -73 170t-214 59q-179 1 -365 -110z M414 0v266h135v-266h-135z" />
<glyph unicode="@" d="M98 532.5q0 399.5 117 583.5t354 184q348 0 349 -409v-670q-121 -129 -267 -129q-127 0 -201.5 96.5t-74.5 343.5q0 229 65.5 335t198.5 106q102 0 174 -70h4v8q0 301 -244 301q-186 0 -279 -156.5t-93 -523.5q0 -369 94 -524t278 -155q133 0 263 73v-98 q-127 -63 -267 -64q-236 0 -353.5 184.5t-117.5 584zM473 532q0 -174 41 -265t137 -91q100 0 160 88v522q-51 102 -160 103q-86 0 -132 -73t-46 -284z" />
<glyph unicode="A" d="M61 0l383 1495h136l383 -1495h-111l-117 475h-450l-117 -475h-107zM307 561h406l-201 821h-4z" />
<glyph unicode="B" d="M174 18v1459q141 39 293 39q397 0 397 -359q0 -266 -243 -334v-4q137 -29 213.5 -131t76.5 -262q0 -446 -436 -446q-151 -1 -301 38zM281 92q98 -25 194 -24q332 0 332 358q0 180 -94.5 264t-294.5 84h-137v-682zM281 860h127q182 0 268 73t86 224q0 270 -295 270 q-94 0 -186 -24v-543z" />
<glyph unicode="C" d="M127 758q0 381 120 569.5t347 188.5q131 0 250 -48v-389h-105v322q-68 25 -135 24q-369 0 -368 -667q0 -690 368 -690q119 0 232 63v-98q-113 -53 -242 -53q-467 0 -467 778z" />
<glyph unicode="D" d="M154 18v1459q123 39 262 39q270 0 393 -173.5t123 -574.5q0 -422 -124 -605t-392 -183q-131 -1 -262 38zM260 92q78 -25 156 -24q219 0 315 155.5t96 544.5q0 356 -97 507.5t-314 151.5q-78 0 -156 -24v-1311z" />
<glyph unicode="E" d="M188 0v1495h656v-88h-547v-547h526v-86h-526v-686h547v-88h-656z" />
<glyph unicode="F" d="M209 0v1495h635v-88h-527v-547h506v-86h-506v-774h-108z" />
<glyph unicode="G" d="M106 758q0 393 122 575.5t370 182.5q123 0 252 -48v-96q-125 53 -252 53q-195 0 -289 -157.5t-94 -509.5q0 -690 369 -690q113 0 209 51v655h-347v86h451v-805q-145 -76 -319 -75q-472 0 -472 778z" />
<glyph unicode="H" d="M143 0v1495h103v-635h528v635h107v-1495h-107v772h-528v-772h-103z" />
<glyph unicode="I" d="M205 0v88h254v1319h-254v88h614v-88h-254v-1319h254v-88h-614z" />
<glyph unicode="J" d="M147 41v96q152 -70 287 -69q143 0 202.5 60t59.5 212v1067h-385v88h492v-1157q0 -199 -82 -278.5t-287 -79.5q-154 0 -287 61z" />
<glyph unicode="K" d="M174 0v1495h107v-686h4l514 686h123l-547 -723l557 -772h-123l-524 737h-4v-737h-107z" />
<glyph unicode="L" d="M221 0v1495h107v-1407h549v-88h-656z" />
<glyph unicode="M" d="M78 0l100 1495h144l192 -1040h4l201 1040h127l100 -1495h-106l-70 1389h-4l-197 -1041h-120l-191 1041h-4l-74 -1389h-102z" />
<glyph unicode="N" d="M164 0v1495h119l471 -1290h4v1290h102v-1495h-115l-471 1290h-4v-1290h-106z" />
<glyph unicode="O" d="M102 747.5q0 417.5 97.5 593t312.5 175.5t312.5 -175.5t97.5 -593t-97.5 -592.5t-312.5 -175t-312.5 175t-97.5 592.5zM205 747.5q0 -206.5 22.5 -345t66.5 -209t95 -98t123 -27.5t123 27.5t95 98t66.5 209t22.5 345t-22.5 345t-66.5 209t-95 98t-123 27.5t-123 -27.5 t-95 -98t-66.5 -209t-22.5 -345z" />
<glyph unicode="P" d="M180 0v1477q137 39 281 39q236 0 346.5 -113t110.5 -354q0 -248 -110 -359.5t-347 -111.5q-68 0 -174 14v-592h-107zM287 684q84 -18 174 -18q184 0 267 88t83 295q0 199 -84 288.5t-266 89.5q-90 0 -174 -24v-719z" />
<glyph unicode="Q" d="M102 747.5q0 417.5 97.5 593t312.5 175.5t312.5 -175.5t97.5 -592.5q0 -319 -55.5 -490.5t-174.5 -232.5v-5q195 -76 279 -327h-113q-53 152 -136 219.5t-210 67.5q-215 0 -312.5 175t-97.5 592.5zM205 747.5q0 -206.5 22.5 -345t66.5 -209t95 -98t123 -27.5t123 27.5 t95 98t66.5 209t22.5 345t-22.5 345t-66.5 209t-95 98t-123 27.5t-123 -27.5t-95 -98t-66.5 -209t-22.5 -345z" />
<glyph unicode="R" d="M168 0v1477q137 39 283 39q231 0 342.5 -100.5t111.5 -305.5q0 -293 -264 -379l-2 -4q115 -59 178 -276l125 -451h-108l-121 449q-39 139 -98.5 193t-172.5 54h-166v-696h-108zM276 784h132q213 0 303 75t90 251q0 164 -85 240.5t-265 76.5q-90 0 -175 -24v-619z" />
<glyph unicode="S" d="M164 1178q0 154 98 246t266 92q158 0 312 -64v-104q-152 80 -308 79q-121 0 -192.5 -67.5t-71.5 -181.5q0 -119 56.5 -198t187.5 -144q209 -98 289 -203t80 -275q0 -184 -99.5 -281t-285.5 -97q-176 0 -322 96v108q156 -117 328 -116q131 0 201.5 73.5t70.5 216.5 q0 131 -59.5 214t-212.5 157q-182 86 -260 191.5t-78 257.5z" />
<glyph unicode="T" d="M123 1407v88h778v-88h-336v-1407h-106v1407h-336z" />
<glyph unicode="U" d="M143 358v1137h107v-1116q0 -168 62.5 -239.5t201.5 -71.5t201.5 71.5t62.5 239.5v1116h103v-1137q0 -199 -89.5 -288.5t-279.5 -89.5t-279.5 89.5t-89.5 288.5z" />
<glyph unicode="V" d="M82 1495h108l322 -1393h4l322 1393h104l-362 -1495h-136z" />
<glyph unicode="W" d="M45 1495h109l131 -1294h4l168 1048h116l164 -1151h4l136 1397h102l-168 -1495h-141l-164 1102h-4l-174 -1102h-115z" />
<glyph unicode="X" d="M123 0l328 760l-324 735h115l270 -643h4l270 643h111l-324 -735l328 -760h-117l-272 664h-4l-272 -664h-113z" />
<glyph unicode="Y" d="M82 1495h115l315 -752h4l315 752h111l-377 -864v-631h-106v631z" />
<glyph unicode="Z" d="M174 0v88l561 1315v4h-561v88h676v-88l-561 -1315v-4h561v-88h-676z" />
<glyph unicode="[" d="M307 -256v1833h471v-78h-364v-1677h364v-78h-471z" />
<glyph unicode="\" d="M111 1495h96l706 -1577h-96z" />
<glyph unicode="]" d="M246 -178h364v1677h-364v78h471v-1833h-471v78z" />
<glyph unicode="^" d="M82 573l364 922h132l364 -922h-102l-326 844h-4l-326 -844h-102z" />
<glyph unicode="_" d="M113 -178h798v-78h-798v78z" />
<glyph unicode="`" d="M322 1659h145q90 -276 215 -533h-94q-157 259 -266 533z" />
<glyph unicode="a" d="M154 311.5q0 157.5 119.5 259t398.5 101.5h73v76q0 156 -44 203.5t-185 47.5q-164 0 -315 -65v90q156 61 315 61q199 0 266.5 -70.5t67.5 -287.5v-682q-139 -66 -313 -65q-182 0 -282.5 87t-100.5 244.5zM258 311q0 -119 72.5 -183.5t206.5 -64.5q121 0 208 43v484h-73 q-414 0 -414 -279z" />
<glyph unicode="b" d="M184 45v1491h105v-510q102 59 219 59q201 0 297 -132t96 -421q0 -287 -102.5 -419.5t-311.5 -132.5q-172 -1 -303 65zM289 106q86 -43 198 -43q156 0 233 112t77 357q0 244 -71 355.5t-218 111.5q-129 0 -219 -79v-814z" />
<glyph unicode="c" d="M147 532q0 293 117 423t311 130q139 0 248 -38v-314h-102v246q-61 20 -139 20q-158 0 -242 -117.5t-84 -349.5q0 -233 87 -351t247 -118q113 0 219 50v-88q-111 -45 -225 -45q-197 0 -317 128.5t-120 423.5z" />
<glyph unicode="d" d="M123 532q0 289 96 421t297 132q117 0 219 -59v510h105v-1491q-131 -66 -303 -65q-209 0 -311.5 132.5t-102.5 419.5zM227 532q0 -246 77 -357.5t233 -111.5q113 0 198 43v814q-90 80 -219 79q-147 0 -218 -111.5t-71 -355.5z" />
<glyph unicode="e" d="M139 532q0 287 94.5 420t288.5 133q180 0 267.5 -127t87.5 -409q0 -29 -3 -39h-628q2 -233 79.5 -340t231.5 -107q131 0 272 62v-90q-145 -55 -276 -55q-414 -1 -414 552zM246 594h524q-2 229 -68.5 318t-179.5 89q-137 0 -202.5 -94t-73.5 -313z" />
<glyph unicode="f" d="M164 940v84h266v164q0 180 59.5 254t202.5 74q66 0 168 -23v-90q-76 27 -153 27q-102 0 -137 -49.5t-35 -223.5v-133h325v-84h-325v-940h-105v940h-266z" />
<glyph unicode="g" d="M139 569q0 262 102.5 389t311.5 127q172 0 303 -43v-956q0 -266 -155.5 -411.5t-430.5 -145.5v86q229 0 355.5 122t126.5 341v24q-94 -51 -209 -51q-195 0 -299.5 131t-104.5 387zM242 569q0 -213 78.5 -323.5t222.5 -110.5q123 0 209 68v772q-96 25 -199 24 q-311 0 -311 -430z" />
<glyph unicode="h" d="M180 0v1536h105v-532q129 82 284 81q162 0 235 -91t73 -298v-696h-103v676q0 193 -50 258t-175 65q-154 0 -264 -100v-899h-105z" />
<glyph unicode="i" d="M236 981v84h389v-1065h-105v981h-284zM498 1321v235h127v-235h-127z" />
<glyph unicode="j" d="M133 -385q395 0 395 444v922h-282v84h389v-1014q0 -522 -502 -522v86zM508 1321v235h127v-235h-127z" />
<glyph unicode="k" d="M188 0v1536h107v-946l483 475h127l-520 -512l520 -553h-125l-485 516v-516h-107z" />
<glyph unicode="l" d="M154 1411v84h401v-1411h295v-84h-401v1411h-295z" />
<glyph unicode="m" d="M78 0v1020q111 66 254 65q139 0 188 -53q88 53 201 53q133 0 185 -55t52 -201v-829h-102v829q0 98 -28.5 134t-106.5 36q-92 0 -152 -43v-956h-102v905q0 51 -29.5 72.5t-105.5 21.5q-86 0 -152 -38v-961h-102z" />
<glyph unicode="n" d="M168 0v1010q147 76 328 75q207 0 287.5 -75.5t80.5 -261.5v-748h-102v748q0 139 -58.5 195t-207.5 56q-125 0 -224 -55v-944h-104z" />
<glyph unicode="o" d="M123 532.5q0 288.5 95 420.5t294 132t294 -132t95 -420.5t-95 -420.5t-294 -132t-294 132t-95 420.5zM229 532.5q0 -253.5 66.5 -360t216.5 -106.5t216.5 106.5t66.5 360t-66.5 360t-216.5 106.5t-216.5 -106.5t-66.5 -360z" />
<glyph unicode="p" d="M174 -451v1483q139 53 313 53q207 0 305.5 -132t98.5 -421q0 -285 -101.5 -418.5t-302.5 -133.5q-115 0 -208 51v-482h-105zM279 131q86 -68 208 -68q299 0 299 469q0 246 -72.5 356.5t-226.5 110.5q-119 0 -208 -30v-838z" />
<glyph unicode="q" d="M133 532q0 289 98.5 421t305.5 132q174 0 313 -53v-1483h-105v482q-94 -51 -208 -51q-201 0 -302.5 133.5t-101.5 418.5zM238 532q0 -469 299 -469q123 0 208 68v838q-90 31 -208 30q-154 0 -226.5 -110.5t-72.5 -356.5z" />
<glyph unicode="r" d="M242 0v991q289 94 614 94v-86q-268 0 -510 -71v-928h-104z" />
<glyph unicode="s" d="M184 819q0 127 89 196.5t255 69.5q154 0 291 -43v-88q-147 47 -287 47q-244 0 -243 -182q0 -78 49 -130t182 -91q190 -55 265 -130t75 -206q0 -135 -93 -208.5t-265 -73.5q-160 0 -307 65v92q156 -74 297 -74q262 0 262 199q0 94 -55.5 149.5t-194.5 96.5 q-174 51 -247 122.5t-73 188.5z" />
<glyph unicode="t" d="M139 940v84h226v389h102v-389h389v-84h-389v-653q0 -133 38 -177t154 -44q100 0 177 26v-90q-90 -23 -185 -22q-164 0 -225 63t-61 233v664h-226z" />
<glyph unicode="u" d="M168 307v758h102v-758q0 -135 54.5 -188t191.5 -53q131 0 225 49v950h103v-1010q-139 -76 -328 -75q-193 0 -270.5 73.5t-77.5 253.5z" />
<glyph unicode="v" d="M123 1065h108l281 -973h4l279 973h106l-323 -1065h-132z" />
<glyph unicode="w" d="M57 1065h105l131 -928h4l166 928h108l158 -969h4l139 969h95l-168 -1065h-135l-156 938h-6l-164 -938h-113z" />
<glyph unicode="x" d="M133 0l316 532l-316 533h115l264 -463h4l264 463h111l-316 -533l316 -532h-117l-262 463h-4l-262 -463h-113z" />
<glyph unicode="y" d="M113 1065h104l303 -897h4l299 897h109l-522 -1516h-107l170 488z" />
<glyph unicode="z" d="M180 0v84l545 893v4h-545v84h664v-84l-545 -893v-4h545v-84h-664z" />
<glyph unicode="{" d="M147 618v82h117q82 0 127 68t45 195v317q0 156 64.5 226.5t204.5 70.5h139v-76h-111q-115 0 -158 -45t-43 -190v-308q0 -223 -149 -294v-5q150 -72 149 -294v-310q0 -145 43 -190t158 -45h111v-76h-139q-139 0 -204 70.5t-65 226.5v317q0 127 -45 193.5t-127 66.5h-117z " />
<glyph unicode="|" d="M465 -451v2110h94v-2110h-94z" />
<glyph unicode="}" d="M180 -180h111q115 0 158 45t43 190v310q0 223 149 294v5q-150 72 -149 294v308q0 145 -43 190t-158 45h-111v76h139q139 0 204 -70.5t65 -226.5v-317q0 -127 45 -195t127 -68h117v-82h-117q-82 0 -127 -66.5t-45 -193.5v-317q0 -156 -64.5 -226.5t-204.5 -70.5h-139v76z " />
<glyph unicode="~" d="M113 469v86l239 137q62 37 90 37h2q27 -2 66 -47l84 -96q16 -20 25.5 -20.5t42.5 18.5l249 145v-86l-239 -137q-62 -37 -90 -37h-2q-27 2 -66 47l-84 96q-16 20 -25.5 20.5t-42.5 -18.5z" />
<glyph unicode="&#xa0;" />
<glyph unicode="&#xa1;" d="M446 778v266h132v-266h-132zM451 -451l10 1049h102l10 -1049h-122z" />
<glyph unicode="&#xa2;" d="M180 532.5q0 483.5 336 544.5v336h82v-328h16q115 0 226 -45v-88q-106 49 -219 49h-23v-938h23q113 0 219 50v-88q-111 -45 -226 -45h-16v-349h-82v357q-336 61 -336 544.5zM287 532.5q0 -385.5 229 -454.5v909q-229 -69 -229 -454.5z" />
<glyph unicode="&#xa3;" d="M152 0v92q66 6 110.5 98.5t44.5 249.5v273h-143v82h143v315q0 197 87 301.5t241 104.5q94 0 180 -37v-93q-80 41 -172 41q-229 0 -229 -301v-331h374v-82h-374v-277q0 -254 -111 -344v-4h569v-88h-720z" />
<glyph unicode="&#xa4;" d="M84 379l147 145q-78 96 -77 224q0 125 77 223l-147 145l59 60l146 -148q96 78 223 78t223 -78l146 148l59 -60l-147 -145q78 -98 77.5 -223t-77.5 -224l147 -145l-59 -60l-146 148q-96 -78 -223 -78t-223 78l-146 -148zM242 747.5q0 -112.5 78.5 -192.5t191.5 -80 t191.5 80t78.5 192.5t-78.5 192.5t-191.5 80t-191.5 -80t-78.5 -192.5z" />
<glyph unicode="&#xa5;" d="M82 1495h115l315 -762h4l315 762h111l-377 -864v-31h326v-88h-326v-512h-106v512h-326v88h326v31z" />
<glyph unicode="&#xa6;" d="M463 -287v738h98v-738h-98zM463 758v737h98v-737h-98z" />
<glyph unicode="&#xa7;" d="M160 1190q0 150 95 238t257 88q160 0 317 -68v-94q-164 76 -317 76q-117 0 -185.5 -62.5t-68.5 -169.5q0 -98 60.5 -158.5t193.5 -95.5q350 -92 350 -360q0 -197 -174 -289q176 -88 176 -277q0 -150 -95 -237.5t-257 -87.5q-156 0 -317 69v93q164 -76 317 -76 q117 0 185.5 63.5t68.5 167.5q0 98 -60.5 158.5t-193.5 95.5q-350 92 -350 361q0 197 174 288q-176 89 -176 277zM254 631q0 -104 61.5 -172t200.5 -103q49 -12 72 -20q82 25 132 91.5t50 150.5q0 104 -61.5 171.5t-200.5 102.5q-49 12 -72 20q-82 -25 -132 -91t-50 -150z " />
<glyph unicode="&#xa8;" d="M297 1249v256h102v-256h-102zM625 1249v256h102v-256h-102z" />
<glyph unicode="&#xa9;" d="M25 747.5q0 319.5 136 494.5t351 175t351 -175t136 -494.5t-136 -494.5t-351 -175t-351 175t-136 494.5zM98 747.5q0 -276.5 110.5 -438.5t303.5 -162t303.5 162t110.5 438.5t-110.5 438.5t-303.5 162t-303.5 -162t-110.5 -438.5zM279 747.5q0 421.5 256 421.5 q76 0 147 -30v-76q-72 33 -137 33q-84 0 -134.5 -73t-50.5 -275q0 -348 187 -349q72 0 141 39v-80q-72 -33 -151 -32q-258 0 -258 421.5z" />
<glyph unicode="&#xaa;" d="M154 434v78h716v-78h-716zM219 889q0 125 95.5 207t318.5 82h57v59q0 123 -34.5 160t-145.5 37q-133 0 -256 -54v78q125 49 256 49q160 0 213 -56t53 -230v-545q-106 -53 -250 -53q-145 0 -226 69.5t-81 196.5zM305 889q0 -94 58.5 -144.5t162.5 -50.5q92 0 164 33v381 h-57q-328 0 -328 -219z" />
<glyph unicode="&#xab;" d="M102 545v98l392 442v-129l-320 -362l320 -363v-129zM510 545v98l391 442v-129l-319 -362l319 -363v-129z" />
<glyph unicode="&#xac;" d="M141 780v94h742v-557h-103v463h-639z" />
<glyph unicode="&#xad;" d="M215 547v94h594v-94h-594z" />
<glyph unicode="&#xae;" d="M25 747.5q0 319.5 136 494.5t351 175t351 -175t136 -494.5t-136 -494.5t-351 -175t-351 175t-136 494.5zM98 747.5q0 -276.5 110.5 -438.5t303.5 -162t303.5 162t110.5 438.5t-110.5 438.5t-303.5 162t-303.5 -162t-110.5 -438.5zM317 336v823q78 16 168 17 q135 0 197.5 -56.5t62.5 -179.5q0 -168 -131 -217v-2q51 -29 82 -141l68 -244h-88l-64 242q-18 70 -45.5 93t-77.5 23h-88v-358h-84zM401 768h64q106 0 151.5 39t45.5 133q0 84 -42 122t-137 38q-45 0 -82 -6v-326z" />
<glyph unicode="&#xaf;" d="M174 1356v78h676v-78h-676z" />
<glyph unicode="&#xb0;" d="M236 1239q0 115 80.5 196t195.5 81t195.5 -81t80.5 -196t-80.5 -195.5t-195.5 -80.5t-195.5 80.5t-80.5 195.5zM328 1239q0 -76 53 -130t131 -54t131 54t53 130t-53 130t-131 54t-131 -54t-53 -130z" />
<glyph unicode="&#xb1;" d="M123 12h778v-94h-778v94zM123 772v94h338v465h102v-465h338v-94h-338v-465h-102v465h-338z" />
<glyph unicode="&#xb2;" d="M307 598v70q180 225 251 361t71 245q0 94 -33 129t-102 35q-94 0 -187 -86v82q96 74 199 73q205 0 205 -229q0 -117 -71 -255t-241 -353v-2h318v-70h-410z" />
<glyph unicode="&#xb3;" d="M295 625v77q88 -47 182 -47q172 0 172 195q0 106 -54 154.5t-177 48.5h-21v69h21q221 0 221 176q0 139 -147 140q-86 0 -179 -47v75q92 41 193 41q104 0 158.5 -52t54.5 -148q0 -162 -146 -215v-2q158 -43 158 -242q0 -262 -246 -262q-92 0 -190 39z" />
<glyph unicode="&#xb4;" d="M354 1208l236 338h149l-276 -338h-109z" />
<glyph unicode="&#xb5;" d="M168 -451v1516h102v-758q0 -135 54.5 -188t191.5 -53q127 0 223 49v950h105v-1010q-139 -76 -328 -75q-168 0 -246 73v-504h-102z" />
<glyph unicode="&#xb6;" d="M125 1024q0 195 108.5 333t260.5 138h344v-1782h-93v1690h-159v-1690h-92v840q-152 0 -260.5 138t-108.5 333z" />
<glyph unicode="&#xb7;" d="M434 451v286h156v-286h-156z" />
<glyph unicode="&#xb8;" d="M248 -315q86 -43 186 -43q96 0 148.5 44t52.5 126q0 109 -78 198h105q74 -106 73 -219q0 -98 -65.5 -170t-223.5 -72q-104 0 -198 39v97z" />
<glyph unicode="&#xb9;" d="M305 1290v78l217 127h82v-897h-82v813l-2 2z" />
<glyph unicode="&#xba;" d="M154 434v78h716v-78h-716zM201 1065q0 231 76.5 336.5t234.5 105.5t234.5 -105.5t76.5 -336.5t-76.5 -336.5t-234.5 -105.5t-234.5 105.5t-76.5 336.5zM291 1065q0 -147 30.5 -231t75.5 -111t115 -27t115 27t75.5 111t30.5 231t-30.5 231t-75.5 111t-115 27t-115 -27 t-75.5 -111t-30.5 -231z" />
<glyph unicode="&#xbb;" d="M123 102v129l319 363l-319 362v129l391 -442v-98zM530 102v129l320 363l-320 362v129l392 -442v-98z" />
<glyph unicode="&#xbc;" d="M37 102l848 779h102l-848 -779h-102zM68 1290v78l217 127h82v-897h-82v813l-2 2zM463 -170l317 616h86v-616h113v-68h-113v-213h-80v213h-323v68zM537 -166v-4h249v483h-2z" />
<glyph unicode="&#xbd;" d="M37 102l848 779h102l-848 -779h-102zM68 1290v78l217 127h82v-897h-82v813l-2 2zM547 -381q180 225 250.5 361.5t70.5 244.5q0 94 -32.5 129t-102.5 35q-94 0 -186 -86v82q96 74 198 74q205 0 205 -230q0 -117 -70.5 -255t-240.5 -353v-2h317v-70h-409v70z" />
<glyph unicode="&#xbe;" d="M37 102l848 779h102l-848 -779h-102zM78 625v77q88 -47 180 -47q174 0 174 195q0 104 -55 153.5t-178 49.5h-21v69h21q223 0 223 176q0 139 -148 140q-86 0 -178 -47v75q92 41 191 41q104 0 159.5 -52t55.5 -148q0 -162 -148 -215v-2q160 -43 160 -242q0 -262 -248 -262 q-90 0 -188 39zM463 -170l319 616h84v-616h113v-68h-113v-213h-80v213h-323v68zM537 -166v-4h249v483h-2z" />
<glyph unicode="&#xbf;" d="M123 -154q0 88 29.5 162t61.5 112t91 97q63 63 94 100t62 114t31 167h102q0 -102 -35 -190.5t-67.5 -128t-98.5 -109.5q-57 -57 -83.5 -91t-53.5 -96.5t-27 -136.5q0 -111 73 -170t214 -59q178 0 365 111v-107q-184 -92 -373 -92q-184 0 -284.5 83.5t-100.5 233.5z M475 778v266h135v-266h-135z" />
<glyph unicode="&#xc0;" d="M61 0l383 1495h136l383 -1495h-111l-117 475h-450l-117 -475h-107zM285 1956h149l236 -338h-109zM307 561h406l-201 821h-4z" />
<glyph unicode="&#xc1;" d="M61 0l383 1495h136l383 -1495h-111l-117 475h-450l-117 -475h-107zM307 561h406l-201 821h-4zM354 1618l236 338h149l-276 -338h-109z" />
<glyph unicode="&#xc2;" d="M61 0l383 1495h136l383 -1495h-111l-117 475h-450l-117 -475h-107zM147 1618l287 338h156l287 -338h-140l-223 283h-4l-223 -283h-140zM307 561h406l-201 821h-4z" />
<glyph unicode="&#xc3;" d="M61 0l383 1495h136l383 -1495h-111l-117 475h-450l-117 -475h-107zM188 1642q0 272 131 273q76 0 205 -100q106 -84 156 -84q33 0 47 33.5t14 129.5h95q0 -139 -33 -199.5t-98 -60.5q-76 0 -207 103q-106 82 -154 82q-35 0 -48 -42t-13 -135h-95zM307 561h406l-201 821 h-4z" />
<glyph unicode="&#xc4;" d="M61 0l383 1495h136l383 -1495h-111l-117 475h-450l-117 -475h-107zM297 1659v256h102v-256h-102zM307 561h406l-201 821h-4zM625 1659v256h102v-256h-102z" />
<glyph unicode="&#xc5;" d="M61 0l383 1495h136l383 -1495h-111l-117 475h-450l-117 -475h-107zM266 1818.5q0 102.5 72 174t174 71.5t174 -71.5t72 -174t-72 -174t-174 -71.5t-174 71.5t-72 174zM307 561h406l-201 821h-4zM348 1818.5q0 -67.5 48 -115.5t116 -48t116 48t48 115.5t-48 115.5t-116 48 t-116 -48t-48 -115.5z" />
<glyph unicode="&#xc6;" d="M51 0l365 1495h536v-88h-327v-547h307v-86h-307v-686h327v-88h-426v475h-264l-110 -475h-101zM283 561h243v848h-45z" />
<glyph unicode="&#xc7;" d="M127 758q0 381 120 569.5t347 188.5q131 0 250 -48v-389h-103v322q-68 25 -137 24q-369 0 -368 -667q0 -690 368 -690q119 0 232 63v-98q-70 -33 -158 -47q57 -96 57 -194.5t-65.5 -170.5t-223.5 -72q-104 0 -198 39v97q86 -43 186 -43q96 0 148.5 44t52.5 126 q0 90 -53 168q-455 10 -455 778z" />
<glyph unicode="&#xc8;" d="M188 0v1495h656v-88h-547v-547h526v-86h-526v-686h547v-88h-656zM285 1956h149l236 -338h-109z" />
<glyph unicode="&#xc9;" d="M188 0v1495h656v-88h-547v-547h526v-86h-526v-686h547v-88h-656zM354 1618l236 338h149l-276 -338h-109z" />
<glyph unicode="&#xca;" d="M147 1618l287 338h156l287 -338h-140l-223 283h-4l-223 -283h-140zM188 0v1495h656v-88h-547v-547h526v-86h-526v-686h547v-88h-656z" />
<glyph unicode="&#xcb;" d="M188 0v1495h656v-88h-547v-547h526v-86h-526v-686h547v-88h-656zM297 1659v256h102v-256h-102zM625 1659v256h102v-256h-102z" />
<glyph unicode="&#xcc;" d="M205 0v88h252v1319h-252v88h614v-88h-252v-1319h252v-88h-614zM285 1956h149l236 -338h-109z" />
<glyph unicode="&#xcd;" d="M205 0v88h252v1319h-252v88h614v-88h-252v-1319h252v-88h-614zM354 1618l236 338h149l-276 -338h-109z" />
<glyph unicode="&#xce;" d="M147 1618l287 338h156l287 -338h-140l-223 283h-4l-223 -283h-140zM205 0v88h252v1319h-252v88h614v-88h-252v-1319h252v-88h-614z" />
<glyph unicode="&#xcf;" d="M205 0v88h252v1319h-252v88h614v-88h-252v-1319h252v-88h-614zM297 1659v256h102v-256h-102zM625 1659v256h102v-256h-102z" />
<glyph unicode="&#xd0;" d="M25 729v109h155v639q123 39 262 39q254 0 372 -174.5t118 -573.5q0 -422 -120 -605t-370 -183q-131 0 -262 38v711h-155zM287 92q78 -25 155 -24q90 0 153.5 27.5t119 99t84 215t28.5 358.5q0 356 -92 507.5t-293 151.5q-78 0 -155 -24v-565h282v-109h-282v-637z" />
<glyph unicode="&#xd1;" d="M164 0v1495h119l471 -1290h4v1290h102v-1495h-115l-471 1290h-4v-1290h-106zM188 1642q0 272 131 273q76 0 205 -100q106 -84 156 -84q33 0 47 33.5t14 129.5h95q0 -139 -33 -199.5t-98 -60.5q-76 0 -207 103q-106 82 -154 82q-35 0 -48 -42t-13 -135h-95z" />
<glyph unicode="&#xd2;" d="M102 747.5q0 417.5 97.5 593t312.5 175.5t312.5 -175.5t97.5 -593t-97.5 -592.5t-312.5 -175t-312.5 175t-97.5 592.5zM205 747.5q0 -206.5 22.5 -345t66.5 -209t95 -98t123 -27.5t123 27.5t95 98t66.5 209t22.5 345t-22.5 345t-66.5 209t-95 98t-123 27.5t-123 -27.5 t-95 -98t-66.5 -209t-22.5 -345zM285 1956h149l236 -338h-109z" />
<glyph unicode="&#xd3;" d="M102 747.5q0 417.5 97.5 593t312.5 175.5t312.5 -175.5t97.5 -593t-97.5 -592.5t-312.5 -175t-312.5 175t-97.5 592.5zM205 747.5q0 -206.5 22.5 -345t66.5 -209t95 -98t123 -27.5t123 27.5t95 98t66.5 209t22.5 345t-22.5 345t-66.5 209t-95 98t-123 27.5t-123 -27.5 t-95 -98t-66.5 -209t-22.5 -345zM354 1618l236 338h149l-276 -338h-109z" />
<glyph unicode="&#xd4;" d="M102 747.5q0 417.5 97.5 593t312.5 175.5t312.5 -175.5t97.5 -593t-97.5 -592.5t-312.5 -175t-312.5 175t-97.5 592.5zM147 1618l287 338h156l287 -338h-140l-223 283h-4l-223 -283h-140zM205 747.5q0 -206.5 22.5 -345t66.5 -209t95 -98t123 -27.5t123 27.5t95 98 t66.5 209t22.5 345t-22.5 345t-66.5 209t-95 98t-123 27.5t-123 -27.5t-95 -98t-66.5 -209t-22.5 -345z" />
<glyph unicode="&#xd5;" d="M102 747.5q0 417.5 97.5 593t312.5 175.5t312.5 -175.5t97.5 -593t-97.5 -592.5t-312.5 -175t-312.5 175t-97.5 592.5zM188 1642q0 272 131 273q76 0 205 -100q106 -84 156 -84q33 0 47 33.5t14 129.5h95q0 -139 -33 -199.5t-98 -60.5q-76 0 -207 103q-106 82 -154 82 q-35 0 -48 -42t-13 -135h-95zM205 747.5q0 -206.5 22.5 -345t66.5 -209t95 -98t123 -27.5t123 27.5t95 98t66.5 209t22.5 345t-22.5 345t-66.5 209t-95 98t-123 27.5t-123 -27.5t-95 -98t-66.5 -209t-22.5 -345z" />
<glyph unicode="&#xd6;" d="M102 747.5q0 417.5 97.5 593t312.5 175.5t312.5 -175.5t97.5 -593t-97.5 -592.5t-312.5 -175t-312.5 175t-97.5 592.5zM205 747.5q0 -206.5 22.5 -345t66.5 -209t95 -98t123 -27.5t123 27.5t95 98t66.5 209t22.5 345t-22.5 345t-66.5 209t-95 98t-123 27.5t-123 -27.5 t-95 -98t-66.5 -209t-22.5 -345zM297 1659v256h102v-256h-102zM625 1659v256h102v-256h-102z" />
<glyph unicode="&#xd7;" d="M133 141l316 453l-316 453l82 57l297 -420l297 420l82 -57l-316 -453l316 -453l-82 -57l-297 420l-297 -420z" />
<glyph unicode="&#xd8;" d="M78 2l100 199q-76 178 -76 547q0 418 97.5 593t312.5 175q180 0 272 -115l72 137l90 -45l-100 -199q76 -178 76 -546q0 -418 -97.5 -593t-312.5 -175q-180 0 -272 114l-72 -137zM205 748q0 -268 37 -418l491 968q-72 129 -221 129q-72 0 -123 -27.5t-95 -98t-66.5 -208.5 t-22.5 -345zM291 197q72 -129 221 -129q72 0 123 27.5t95 98t66.5 209t22.5 345.5q0 268 -37 417z" />
<glyph unicode="&#xd9;" d="M143 358v1137h107v-1116q0 -168 62.5 -239.5t201.5 -71.5t201.5 71.5t62.5 239.5v1116h103v-1137q0 -199 -89.5 -288.5t-279.5 -89.5t-279.5 89.5t-89.5 288.5zM285 1956h149l236 -338h-109z" />
<glyph unicode="&#xda;" d="M143 358v1137h107v-1116q0 -168 62.5 -239.5t201.5 -71.5t201.5 71.5t62.5 239.5v1116h103v-1137q0 -199 -89.5 -288.5t-279.5 -89.5t-279.5 89.5t-89.5 288.5zM354 1618l236 338h149l-276 -338h-109z" />
<glyph unicode="&#xdb;" d="M143 358v1137h107v-1116q0 -168 62.5 -239.5t201.5 -71.5t201.5 71.5t62.5 239.5v1116h103v-1137q0 -199 -89.5 -288.5t-279.5 -89.5t-279.5 89.5t-89.5 288.5zM147 1618l287 338h156l287 -338h-140l-223 283h-4l-223 -283h-140z" />
<glyph unicode="&#xdc;" d="M143 358v1137h107v-1116q0 -168 62.5 -239.5t201.5 -71.5t201.5 71.5t62.5 239.5v1116h103v-1137q0 -199 -89.5 -288.5t-279.5 -89.5t-279.5 89.5t-89.5 288.5zM297 1659v256h102v-256h-102zM625 1659v256h102v-256h-102z" />
<glyph unicode="&#xdd;" d="M82 1495h115l315 -752h4l315 752h111l-377 -864v-631h-106v631zM354 1618l236 338h149l-276 -338h-109z" />
<glyph unicode="&#xde;" d="M182 0v1495h107v-250q104 14 182 15q231 0 340 -111t109 -346q0 -240 -107.5 -347.5t-339.5 -107.5q-74 0 -184 14v-362h-107zM289 451q92 -14 174 -15q186 0 269 84t83 283q0 195 -84 281.5t-268 86.5q-88 0 -174 -16v-704z" />
<glyph unicode="&#xdf;" d="M154 1118q0 244 80.5 341t279.5 97q346 0 346 -270q0 -88 -51 -185t-101.5 -169t-50.5 -94.5t43 -78.5l95 -119q51 -62 94 -151.5t43 -169.5q0 -166 -81 -252.5t-228 -86.5q-125 0 -263 43l15 88q133 -43 233 -43q215 0 215 247q0 90 -68.5 198t-137 196t-68.5 129 q0 39 51 116.5t102.5 168.5t51.5 167q0 84 -52.5 132t-185.5 48q-143 0 -199.5 -69.5t-56.5 -278.5v-1122h-106v1118z" />
<glyph unicode="&#xe0;" d="M154 311.5q0 157.5 119.5 259t398.5 101.5h73v76q0 156 -44 203.5t-185 47.5q-164 0 -315 -65v90q156 61 315 61q199 0 266.5 -70.5t67.5 -287.5v-682q-139 -66 -313 -65q-182 0 -282.5 87t-100.5 244.5zM258 311q0 -119 72.5 -183.5t206.5 -64.5q121 0 208 43v484h-73 q-414 0 -414 -279zM285 1546h149l236 -338h-109z" />
<glyph unicode="&#xe1;" d="M154 311.5q0 157.5 119.5 259t398.5 101.5h73v76q0 156 -44 203.5t-185 47.5q-164 0 -315 -65v90q156 61 315 61q199 0 266.5 -70.5t67.5 -287.5v-682q-139 -66 -313 -65q-182 0 -282.5 87t-100.5 244.5zM258 311q0 -119 72.5 -183.5t206.5 -64.5q121 0 208 43v484h-73 q-414 0 -414 -279zM354 1208l236 338h149l-276 -338h-109z" />
<glyph unicode="&#xe2;" d="M147 1208l287 338h156l287 -338h-140l-223 283h-4l-223 -283h-140zM154 311.5q0 157.5 119.5 259t398.5 101.5h73v76q0 156 -44 203.5t-185 47.5q-164 0 -315 -65v90q156 61 315 61q199 0 266.5 -70.5t67.5 -287.5v-682q-139 -66 -313 -65q-182 0 -282.5 87t-100.5 244.5 zM258 311q0 -119 72.5 -183.5t206.5 -64.5q121 0 208 43v484h-73q-414 0 -414 -279z" />
<glyph unicode="&#xe3;" d="M154 311.5q0 157.5 119.5 259t398.5 101.5h73v76q0 156 -44 203.5t-185 47.5q-164 0 -315 -65v90q156 61 315 61q199 0 266.5 -70.5t67.5 -287.5v-682q-139 -66 -313 -65q-182 0 -282.5 87t-100.5 244.5zM188 1212q0 272 131 273q76 0 205 -101q106 -84 156 -84 q33 0 47 34t14 130h95q0 -139 -33 -199.5t-98 -60.5q-76 0 -207 103q-106 82 -154 82q-35 0 -48 -42t-13 -135h-95zM258 311q0 -119 72.5 -183.5t206.5 -64.5q121 0 208 43v484h-73q-414 0 -414 -279z" />
<glyph unicode="&#xe4;" d="M154 311.5q0 157.5 119.5 259t398.5 101.5h73v76q0 156 -44 203.5t-185 47.5q-164 0 -315 -65v90q156 61 315 61q199 0 266.5 -70.5t67.5 -287.5v-682q-139 -66 -313 -65q-182 0 -282.5 87t-100.5 244.5zM258 311q0 -119 72.5 -183.5t206.5 -64.5q121 0 208 43v484h-73 q-414 0 -414 -279zM297 1249v256h102v-256h-102zM625 1249v256h102v-256h-102z" />
<glyph unicode="&#xe5;" d="M154 311.5q0 157.5 119.5 259t398.5 101.5h73v76q0 156 -44 203.5t-185 47.5q-164 0 -315 -65v90q156 61 315 61q199 0 266.5 -70.5t67.5 -287.5v-682q-139 -66 -313 -65q-182 0 -282.5 87t-100.5 244.5zM258 311q0 -119 72.5 -183.5t206.5 -64.5q121 0 208 43v484h-73 q-414 0 -414 -279zM266 1388.5q0 102.5 72 174t174 71.5t174 -71.5t72 -174t-72 -174t-174 -71.5t-174 71.5t-72 174zM348 1388.5q0 -67.5 48 -115.5t116 -48t116 48t48 115.5t-48 115.5t-116 48t-116 -48t-48 -115.5z" />
<glyph unicode="&#xe6;" d="M51 291q0 184 92.5 282.5t266.5 98.5h59v12v64q0 147 -36 199t-116 52q-45 0 -116.5 -23.5t-118.5 -51.5v94q123 68 235 67q90 0 142.5 -35.5t77.5 -119.5q61 156 200 155q119 0 177.5 -117.5t58.5 -398.5q0 -49 -2 -59h-400q2 -117 14.5 -203t31 -131t46 -71.5t49 -34 t50.5 -7.5q94 0 184 60v-90q-96 -53 -188 -53q-182 0 -244 247q-33 -135 -94.5 -191t-153.5 -56t-153.5 82t-61.5 229zM143 297q0 -109 38 -171.5t98 -62.5q43 0 72.5 19.5t56 74t42 162t19.5 271.5h-59q-129 0 -198 -75t-69 -218zM571 594h312q0 166 -22.5 260t-52.5 120.5 t-75 26.5q-76 0 -117 -92t-45 -315z" />
<glyph unicode="&#xe7;" d="M147 532.5q0 292.5 117 422.5t311 130q139 0 248 -38v-314h-102v246q-61 20 -139 20q-158 0 -242 -117.5t-84 -349.5q0 -233 87 -351t247 -118q113 0 219 50v-88q-55 -23 -131 -37q57 -96 57 -197q0 -98 -65.5 -170t-223.5 -72q-104 0 -198 39v97q86 -43 186 -43 q96 0 148.5 44t52.5 126q0 90 -53 168q-197 2 -316 131t-119 421.5z" />
<glyph unicode="&#xe8;" d="M139 532q0 287 94.5 420t288.5 133q180 0 267.5 -127t87.5 -409q0 -29 -3 -39h-628q2 -233 79.5 -340t231.5 -107q131 0 272 62v-90q-145 -55 -276 -55q-414 -1 -414 552zM246 594h524q-2 229 -68.5 318t-179.5 89q-137 0 -202.5 -94t-73.5 -313zM285 1546h149l236 -338 h-109z" />
<glyph unicode="&#xe9;" d="M139 532q0 287 94.5 420t288.5 133q180 0 267.5 -127t87.5 -409q0 -29 -3 -39h-628q2 -233 79.5 -340t231.5 -107q131 0 272 62v-90q-145 -55 -276 -55q-414 -1 -414 552zM246 594h524q-2 229 -68.5 318t-179.5 89q-137 0 -202.5 -94t-73.5 -313zM354 1208l236 338h149 l-276 -338h-109z" />
<glyph unicode="&#xea;" d="M139 532q0 287 94.5 420t288.5 133q180 0 267.5 -127t87.5 -409q0 -29 -3 -39h-628q2 -233 79.5 -340t231.5 -107q131 0 272 62v-90q-145 -55 -276 -55q-414 -1 -414 552zM147 1208l287 338h156l287 -338h-140l-223 283h-4l-223 -283h-140zM246 594h524q-2 229 -68.5 318 t-179.5 89q-137 0 -202.5 -94t-73.5 -313z" />
<glyph unicode="&#xeb;" d="M139 532q0 287 94.5 420t288.5 133q180 0 267.5 -127t87.5 -409q0 -29 -3 -39h-628q2 -233 79.5 -340t231.5 -107q131 0 272 62v-90q-145 -55 -276 -55q-414 -1 -414 552zM246 594h524q-2 229 -68.5 318t-179.5 89q-137 0 -202.5 -94t-73.5 -313zM297 1249v256h102v-256 h-102zM625 1249v256h102v-256h-102z" />
<glyph unicode="&#xec;" d="M236 981v84h389v-1065h-107v981h-282zM285 1546h149l236 -338h-109z" />
<glyph unicode="&#xed;" d="M236 981v84h389v-1065h-107v981h-282zM354 1208l236 338h149l-276 -338h-109z" />
<glyph unicode="&#xee;" d="M147 1208l287 338h156l287 -338h-140l-223 283h-4l-223 -283h-140zM236 981v84h389v-1065h-107v981h-282z" />
<glyph unicode="&#xef;" d="M236 981v84h389v-1065h-107v981h-282zM297 1249v256h102v-256h-102zM625 1249v256h102v-256h-102z" />
<glyph unicode="&#xf0;" d="M123 532.5q0 284.5 96 418.5t293 134q123 0 197 -71l2 2q-59 160 -164 258l-338 -152l-39 84l293 131q-100 61 -213 82v97q184 -29 319 -130l262 117l37 -84l-221 -100q254 -258 254 -787q0 -285 -96 -418.5t-293 -133.5t-293 134t-96 418.5zM227 532.5q0 -249.5 69 -358 t216 -108.5t216 108.5t69 358t-69 358t-216 108.5t-216 -108.5t-69 -358z" />
<glyph unicode="&#xf1;" d="M168 0v1010q147 76 328 75q207 0 287.5 -75.5t80.5 -261.5v-748h-102v748q0 139 -58.5 195t-207.5 56q-123 0 -222 -55v-944h-106zM188 1212q0 272 131 273q76 0 205 -101q106 -84 156 -84q33 0 47 34t14 130h95q0 -139 -33 -199.5t-98 -60.5q-76 0 -207 103 q-106 82 -154 82q-35 0 -48 -42t-13 -135h-95z" />
<glyph unicode="&#xf2;" d="M123 532q0 291 95 422t294 131t294 -131t95 -422q0 -289 -95 -420.5t-294 -131.5t-294 131.5t-95 420.5zM229 532.5q0 -253.5 66.5 -360t216.5 -106.5t216.5 106.5t66.5 360t-66.5 360t-216.5 106.5t-216.5 -106.5t-66.5 -360zM285 1546h149l236 -338h-109z" />
<glyph unicode="&#xf3;" d="M123 532q0 291 95 422t294 131t294 -131t95 -422q0 -289 -95 -420.5t-294 -131.5t-294 131.5t-95 420.5zM229 532.5q0 -253.5 66.5 -360t216.5 -106.5t216.5 106.5t66.5 360t-66.5 360t-216.5 106.5t-216.5 -106.5t-66.5 -360zM354 1208l236 338h149l-276 -338h-109z" />
<glyph unicode="&#xf4;" d="M123 532q0 291 95 422t294 131t294 -131t95 -422q0 -289 -95 -420.5t-294 -131.5t-294 131.5t-95 420.5zM147 1208l287 338h156l287 -338h-140l-223 283h-4l-223 -283h-140zM229 532.5q0 -253.5 66.5 -360t216.5 -106.5t216.5 106.5t66.5 360t-66.5 360t-216.5 106.5 t-216.5 -106.5t-66.5 -360z" />
<glyph unicode="&#xf5;" d="M123 532q0 291 95 422t294 131t294 -131t95 -422q0 -289 -95 -420.5t-294 -131.5t-294 131.5t-95 420.5zM188 1212q0 272 131 273q76 0 205 -101q106 -84 156 -84q33 0 47 34t14 130h95q0 -139 -33 -199.5t-98 -60.5q-76 0 -207 103q-106 82 -154 82q-35 0 -48 -42 t-13 -135h-95zM229 532.5q0 -253.5 66.5 -360t216.5 -106.5t216.5 106.5t66.5 360t-66.5 360t-216.5 106.5t-216.5 -106.5t-66.5 -360z" />
<glyph unicode="&#xf6;" d="M123 532q0 291 95 422t294 131t294 -131t95 -422q0 -289 -95 -420.5t-294 -131.5t-294 131.5t-95 420.5zM229 532.5q0 -253.5 66.5 -360t216.5 -106.5t216.5 106.5t66.5 360t-66.5 360t-216.5 106.5t-216.5 -106.5t-66.5 -360zM297 1249v256h102v-256h-102zM625 1249v256 h102v-256h-102z" />
<glyph unicode="&#xf7;" d="M133 561v86h758v-86h-758zM455 0v266h114v-266h-114zM455 942v266h114v-266h-114z" />
<glyph unicode="&#xf8;" d="M86 6l104 150q-68 133 -67 376q0 291 95 422t294 131q170 0 264 -96l88 123l74 -53l-104 -150q68 -133 67 -377q0 -289 -95 -420.5t-294 -131.5q-170 0 -264 96l-88 -123zM229 532q0 -172 31 -276l459 651q-66 92 -207 92q-150 0 -216.5 -106.5t-66.5 -360.5zM305 158 q66 -92 207 -92q150 0 216.5 106.5t66.5 359.5q0 172 -31 277z" />
<glyph unicode="&#xf9;" d="M168 307v758h102v-758q0 -135 54.5 -188t191.5 -53q127 0 223 49v950h105v-1010q-139 -76 -328 -75q-193 0 -270.5 73.5t-77.5 253.5zM285 1546h149l236 -338h-109z" />
<glyph unicode="&#xfa;" d="M168 307v758h102v-758q0 -135 54.5 -188t191.5 -53q127 0 223 49v950h105v-1010q-139 -76 -328 -75q-193 0 -270.5 73.5t-77.5 253.5zM354 1208l236 338h149l-276 -338h-109z" />
<glyph unicode="&#xfb;" d="M147 1208l287 338h156l287 -338h-140l-223 283h-4l-223 -283h-140zM168 307v758h102v-758q0 -135 54.5 -188t191.5 -53q127 0 223 49v950h105v-1010q-139 -76 -328 -75q-193 0 -270.5 73.5t-77.5 253.5z" />
<glyph unicode="&#xfc;" d="M168 307v758h102v-758q0 -135 54.5 -188t191.5 -53q131 0 225 49v950h103v-1010q-139 -76 -328 -75q-193 0 -270.5 73.5t-77.5 253.5zM297 1249v256h102v-256h-102zM625 1249v256h102v-256h-102z" />
<glyph unicode="&#xfd;" d="M113 1065h104l303 -897h4l299 897h109l-522 -1516h-107l172 488zM354 1208l236 338h149l-276 -338h-109z" />
<glyph unicode="&#xfe;" d="M174 -451v1987h105v-475q94 25 208 24q207 0 305.5 -132t98.5 -421q0 -285 -101.5 -418.5t-302.5 -133.5q-115 0 -208 51v-482h-105zM279 131q86 -68 208 -68q299 0 299 469q0 246 -72.5 356.5t-226.5 110.5q-119 0 -208 -30v-838z" />
<glyph unicode="&#xff;" d="M113 1065h104l303 -897h4l299 897h109l-522 -1516h-107l172 488zM297 1249v256h102v-256h-102zM625 1249v256h102v-256h-102z" />
<glyph unicode="&#x152;" d="M82 747.5q0 409.5 99.5 589t310.5 179.5q74 0 133 -21h348v-88h-346v-547h325v-86h-325v-686h346v-88h-348q-59 -20 -133 -20q-211 0 -310.5 179t-99.5 588.5zM184 747.5q0 -206.5 23.5 -346t69 -209t96.5 -97t119 -27.5q4 0 14 1t16 1v1355q-6 0 -16 1t-14 1 q-68 0 -119 -27.5t-96.5 -97t-69 -209t-23.5 -346z" />
<glyph unicode="&#x153;" d="M51 532.5q0 290.5 65.5 421.5t194.5 131q147 0 209 -170q61 170 217 170q117 0 176.5 -118.5t59.5 -397.5q0 -49 -2 -59h-404v-55q8 -215 59.5 -303.5t147.5 -88.5q88 0 172 60v-92q-90 -51 -178 -51q-174 0 -244 180q-61 -180 -213 -180q-129 0 -194.5 131t-65.5 421.5z M154 532.5q0 -251.5 39.5 -359t117.5 -107.5q160 0 160 466.5t-160 466.5q-78 0 -117.5 -107.5t-39.5 -359zM567 594h316q-2 227 -38 316t-112 89t-118 -87t-48 -298v-20z" />
<glyph unicode="&#x178;" d="M82 1495h115l315 -752h4l315 752h111l-377 -864v-631h-106v631zM297 1659v256h102v-256h-102zM625 1659v256h102v-256h-102z" />
<glyph unicode="&#x2c6;" d="M147 1208l287 338h156l287 -338h-140l-223 283h-4l-223 -283h-140z" />
<glyph unicode="&#x2dc;" d="M188 1212q0 272 131 273q76 0 205 -101q106 -84 156 -84q33 0 47 34t14 130h95q0 -139 -33 -199.5t-98 -60.5q-76 0 -207 103q-106 82 -154 82q-35 0 -48 -42t-13 -135h-95z" />
<glyph unicode="&#x2013;" d="M133 563v72h758v-72h-758z" />
<glyph unicode="&#x2014;" d="M0 563v72h1024v-72h-1024z" />
<glyph unicode="&#x2018;" d="M356 1065q72 268 197 532h94q-90 -266 -145 -532h-146z" />
<glyph unicode="&#x2019;" d="M367 1065q90 266 145 532h145q-72 -268 -196 -532h-94z" />
<glyph unicode="&#x201a;" d="M367 -246q90 266 145 533h145q-72 -268 -196 -533h-94z" />
<glyph unicode="&#x201c;" d="M213 1065q72 268 197 532h84q-90 -266 -146 -532h-135zM500 1065q72 268 196 532h84q-90 -266 -145 -532h-135z" />
<glyph unicode="&#x201d;" d="M219 1065q90 266 146 532h133q-76 -279 -195 -532h-84zM506 1065q90 266 145 532h133q-76 -279 -194 -532h-84z" />
<glyph unicode="&#x201e;" d="M213 -246q90 266 145 533h136q-72 -268 -197 -533h-84zM500 -246q90 266 145 533h135q-72 -268 -196 -533h-84z" />
<glyph unicode="&#x2022;" d="M358 593.5q0 63.5 45.5 109t108.5 45.5t108.5 -45.5t45.5 -109t-45.5 -108.5t-108.5 -45t-108.5 45t-45.5 108.5z" />
<glyph unicode="&#x2026;" horiz-adv-x="2048" d="M285 604v266h114v-266h-114zM967 604v266h114v-266h-114zM1649 604v266h114v-266h-114z" />
<glyph unicode="&#x2039;" d="M248 594l327 430h130l-330 -430l330 -430h-130z" />
<glyph unicode="&#x203a;" d="M319 164l330 430l-330 430h130l327 -430l-327 -430h-130z" />
<glyph unicode="&#x20ac;" d="M70 535v88h151q-4 78 -4 125t4 124h-151v89h155q25 297 131.5 426t296.5 129q127 0 246 -64v-94q-119 70 -242 69q-135 0 -219 -100t-108 -366h501v-89h-507q-4 -78 -4.5 -125t4.5 -124h507v-88h-501q25 -266 108.5 -366.5t218.5 -100.5q123 0 242 69v-94 q-119 -63 -246 -63q-190 0 -296.5 129t-131.5 426h-155z" />
<glyph unicode="&#x2122;" d="M78 1438v57h389v-57h-164v-690h-63v690h-162zM471 748l55 747h78l92 -541h2l93 541h75l56 -747h-62l-41 614h-2l-82 -471h-80l-82 471h-2l-41 -614h-59z" />
<glyph unicode="&#xe000;" horiz-adv-x="1065" d="M0 1065h1065v-1065h-1065v1065z" />
<glyph unicode="&#xfb01;" d="M61 940v84h195v154q0 186 55.5 262t184.5 76q80 0 159 -27v-90q-70 31 -139 31q-90 0 -124 -51.5t-34 -215.5v-139h512v-1024h-102v940h-410v-940h-102v940h-195zM768 1270v286h102v-286h-102z" />
<glyph unicode="&#xfb02;" d="M61 940v84h195v184q0 158 79 233t249 75q152 0 286 -50v-1466h-102v1403q-80 27 -182 27q-125 0 -176.5 -50.5t-51.5 -167.5v-188h297v-84h-297v-940h-102v940h-195z" />
<glyph unicode="&#xfb03;" d="M18 940v84h121v184q0 160 56.5 234t171.5 74q49 0 102 -17v-88q-47 18 -94 19q-68 0 -102.5 -45.5t-34.5 -165.5v-195h266v184q0 160 57 234t172 74q49 0 103 -17v-88q-45 18 -95 19q-68 0 -102.5 -45.5t-34.5 -165.5v-195h367v-1024h-101v940h-266v-940h-100v940h-266 v-940h-99v940h-121zM870 1270v286h101v-286h-101z" />
<glyph unicode="&#xfb04;" d="M18 940v84h121v184q0 160 56.5 234t171.5 74q49 0 102 -17v-88q-47 18 -94 19q-68 0 -102.5 -45.5t-34.5 -165.5v-195h266v184q0 162 59.5 235t186.5 73q117 0 221 -50v-1466h-101v1407q-51 23 -118 23q-76 0 -112 -45.5t-36 -165.5v-195h182v-84h-182v-940h-100v940 h-266v-940h-99v940h-121z" />
</font>
</defs>
</svg>
