<?xml version="1.0" standalone="no"?>
<!DOCTYPE svg PUBLIC "-//W3C//DTD SVG 1.1//EN" "http://www.w3.org/Graphics/SVG/1.1/DTD/svg11.dtd" >
<svg xmlns="http://www.w3.org/2000/svg">
<metadata>
This is a custom SVG webfont generated by Font Squirrel.
Copyright   : Copyrightc 2011 M FONTS PROJECT
Foundry URL : httpmplusfontssourceforgejp
</metadata>
<defs>
<font id="M+1mnmedium" horiz-adv-x="1024" >
<font-face units-per-em="2048" ascent="1761" descent="-287" />
<missing-glyph horiz-adv-x="500" />
<glyph unicode=" " />
<glyph unicode="!" d="M373 0v287h278v-287h-278zM373 1495h278l-33 -1034h-212z" />
<glyph unicode="&#x22;" d="M180 1597h266l-53 -614h-164zM578 1597h266l-49 -614h-164z" />
<glyph unicode="#" d="M61 362v177h134l51 460h-113v179h133l37 317h215l-37 -317h160l35 317h215l-35 -317h107v-179h-127l-54 -460h109v-177h-127l-43 -362h-213l41 362h-160l-41 -362h-215l41 362h-113zM410 539h157l54 460h-160z" />
<glyph unicode="$" d="M133 1085q0 180 102.5 279.5t292.5 99.5h7v205h180v-221q72 -14 162 -51v-195q-74 43 -162 66v-480q106 -61 151 -145t45 -213q0 -393 -401 -399v-205h-180v223q-82 18 -183 74v209q86 -63 183 -96v497q-106 63 -151.5 146t-45.5 206zM356 1090q0 -164 172 -220l2 -2h5 v422q-179 -7 -179 -200zM510 209q176 18 176 217q0 164 -174 225h-2v-442z" />
<glyph unicode="%" d="M41 1188q0 160 77 244t210 84t209.5 -84t76.5 -244t-76.5 -244t-209.5 -84t-210 84t-77 244zM102 393v185l820 524v-184zM236 1187.5q0 -102.5 22.5 -144.5t69.5 -42t69.5 42t22.5 144.5t-22.5 144.5t-69.5 42t-69.5 -42t-22.5 -144.5zM410 307q0 160 76.5 244t209.5 84 t210 -84t77 -244t-77 -243.5t-210 -83.5t-209.5 83.5t-76.5 243.5zM604 307.5q0 -102.5 22.5 -144.5t69.5 -42t69.5 42t22.5 144.5t-22.5 144.5t-69.5 42t-69.5 -42t-22.5 -144.5z" />
<glyph unicode="&#x26;" d="M41 406q0 287 268 403v4q-100 53 -155.5 145.5t-55.5 204.5q0 166 104.5 259.5t299.5 93.5q123 0 243 -21v-180q-92 27 -192 26q-223 0 -223 -211q0 -117 68.5 -180t191.5 -63h22v250h228v-250h153v-174h-153v-693q-174 -41 -344 -40q-455 0 -455 426zM276 420 q0 -127 59.5 -195.5t160.5 -68.5q55 0 116 16v541h-30q-143 0 -224.5 -79t-81.5 -214z" />
<glyph unicode="'" d="M365 1597h294l-61 -614h-172z" />
<glyph unicode="(" d="M225 631q0 567 398 946h206q-395 -379 -395 -946q0 -569 395 -948h-206q-398 379 -398 948z" />
<glyph unicode=")" d="M195 -317q395 379 395 948q0 567 -395 946h206q397 -379 398 -946q0 -569 -398 -948h-206z" />
<glyph unicode="*" d="M70 1141l69 209l297 -133l-35 323h222l-35 -323l297 133l69 -209l-321 -68l221 -242l-180 -129l-162 283l-162 -283l-180 129l221 242z" />
<glyph unicode="+" d="M72 532v170h331v424h220v-424h329v-170h-329v-430h-220v430h-331z" />
<glyph unicode="," d="M276 -266q84 309 123 614h318q-88 -315 -246 -614h-195z" />
<glyph unicode="-" d="M205 520v170h614v-170h-614z" />
<glyph unicode="." d="M352 0v348h328v-348h-328z" />
<glyph unicode="/" d="M84 -82l657 1577h199l-657 -1577h-199z" />
<glyph unicode="0" d="M102 747.5q0 292.5 48.5 463.5t134.5 238t227 67t227 -67t134.5 -238t48.5 -463.5t-48.5 -463.5t-134.5 -237.5t-227 -66.5t-227 66.5t-134.5 237.5t-48.5 463.5zM315 748q0 -68 4 -170l351 608q-23 86 -62 121.5t-96 35.5q-68 0 -107.5 -47t-64.5 -179.5t-25 -368.5z M346 338q23 -102 64 -144t102 -42q68 0 107.5 47t64.5 180t25 369q0 117 -7 206z" />
<glyph unicode="1" d="M152 1085v201l358 209h227v-1495h-229v1280l-4 2z" />
<glyph unicode="2" d="M143 0v178q496 547 496 928q0 121 -44 176t-134 55q-137 0 -318 -120v192q164 106 365 107q176 0 269 -101.5t93 -298.5q0 -188 -115.5 -413.5t-373.5 -520.5v-4h500v-178h-738z" />
<glyph unicode="3" d="M119 45v197q147 -84 301 -84q256 0 256 282q0 141 -74 204t-254 63h-41v180h41q168 0 242 61.5t74 194.5q0 197 -215 196q-135 0 -302 -86v191q180 72 342 72q190 0 293 -91.5t103 -253.5q0 -289 -246 -366v-2q266 -51 266 -373q0 -451 -459 -450q-169 -1 -327 65z" />
<glyph unicode="4" d="M61 332v176l486 987h248v-987h168v-176h-168v-332h-226v332h-508zM242 508h327v670h-4l-323 -664v-6z" />
<glyph unicode="5" d="M160 41v195q141 -78 274 -78q121 0 176.5 70.5t55.5 246.5q0 166 -39 236.5t-121 70.5q-80 0 -148 -82h-190l20 795h668v-176h-457l-14 -414h4q78 51 178 51q330 0 330 -481q0 -266 -106.5 -380.5t-339.5 -114.5q-156 0 -291 61z" />
<glyph unicode="6" d="M119 655q0 328 51 518.5t148.5 266.5t259.5 76q135 0 258 -41v-195q-111 57 -232 57q-131 0 -188.5 -88t-67.5 -338h4q100 88 221 88q184 0 268.5 -112.5t84.5 -378.5q0 -287 -98.5 -407.5t-305.5 -120.5q-143 0 -228 57t-130 206.5t-45 411.5zM348 516q0 -203 42 -281.5 t132 -78.5q96 0 137 72.5t41 279.5q0 184 -37.5 249.5t-130.5 65.5q-94 0 -139 -70.5t-45 -236.5z" />
<glyph unicode="7" d="M133 1317v178h758v-178q-242 -569 -420 -1317h-240q184 717 461 1313v4h-559z" />
<glyph unicode="8" d="M82 389q0 266 235 383v2q-92 55 -148 157.5t-56 215.5q0 172 104.5 270.5t294.5 98.5t294.5 -97.5t104.5 -271.5q0 -106 -57 -197.5t-158 -148.5v-4q117 -53 181.5 -160t64.5 -248q0 -199 -114.5 -304t-319.5 -105t-315.5 105t-110.5 304zM293 406q0 -123 55 -185.5 t156 -62.5q213 0 213 248q0 221 -228 290q-196 -69 -196 -290zM336 1131q0 -209 180 -267q184 63 184 267q0 102 -46 155t-130 53q-96 0 -142 -51t-46 -157z" />
<glyph unicode="9" d="M98 1008q0 264 99.5 386t304.5 122q152 0 235.5 -57.5t125.5 -204t42 -414.5q0 -332 -51 -521.5t-147.5 -264t-260.5 -74.5q-135 0 -258 40v195q111 -57 232 -57q131 0 188.5 87t67.5 339h-4q-100 -88 -221 -88q-176 0 -264.5 120t-88.5 392zM324 1008 q0 -193 39.5 -264.5t128.5 -71.5q184 0 184 327q0 190 -42 265t-132 75q-96 0 -137 -70.5t-41 -260.5z" />
<glyph unicode=":" d="M358 0v348h308v-348h-308zM358 799v348h308v-348h-308z" />
<glyph unicode=";" d="M256 -266q84 309 123 614h317q-88 -315 -245 -614h-195zM379 799v348h307v-348h-307z" />
<glyph unicode="&#x3c;" d="M102 502v225l799 481v-204l-665 -388v-4l665 -387v-205z" />
<glyph unicode="=" d="M113 297v168h798v-168h-798zM113 764v168h798v-168h-798z" />
<glyph unicode="&#x3e;" d="M123 20v205l665 387v4l-665 388v204l799 -481v-225z" />
<glyph unicode="?" d="M127 1221v209q190 86 401 86q188 0 293 -88.5t105 -243.5q0 -78 -27 -146.5t-52.5 -103.5t-80.5 -98q-55 -61 -84 -101.5t-58.5 -114t-33.5 -159.5h-217q0 106 34.5 200.5t66.5 138.5t93 115q49 57 68.5 83t42 75t22.5 98q0 166 -204 166q-168 1 -369 -116zM344 0v287 h274v-287h-274z" />
<glyph unicode="@" d="M51 532q0 401 127 584.5t379 183.5q395 0 395 -409v-668q-133 -133 -321 -133q-147 0 -217 99.5t-70 340.5q0 233 66.5 337t199.5 104q76 0 142 -51h4v22q0 88 -48.5 137t-134.5 49q-166 0 -244.5 -133t-78.5 -462.5t84 -462.5t256 -133q127 0 260 69v-186 q-131 -55 -287 -56q-252 0 -382 181t-130 587zM545 530.5q0 -165.5 24.5 -220t84 -54.5t85.5 49v436q-29 63 -90 64q-59 0 -81.5 -54.5t-22.5 -220z" />
<glyph unicode="A" d="M25 0l354 1495h266l354 -1495h-239l-76 393h-352l-76 -393h-231zM367 567h282l-139 703h-4z" />
<glyph unicode="B" d="M127 20v1455q160 41 334 41q444 0 444 -373q0 -125 -63.5 -213t-169.5 -115v-2q119 -23 196.5 -129t77.5 -254q0 -451 -475 -450q-176 -1 -344 40zM358 891h60q139 0 203.5 56.5t64.5 180.5q0 211 -225 211q-59 0 -103 -16v-432zM358 172q45 -16 113 -16q254 0 254 278 q0 147 -68.5 215t-214.5 68h-84v-545z" />
<glyph unicode="C" d="M92 768q0 748 512 748q154 0 277 -46v-462h-219v319q-29 8 -48 8q-297 0 -297 -567q0 -612 328 -612q104 0 225 63v-188q-117 -51 -260 -51q-518 0 -518 788z" />
<glyph unicode="D" d="M106 20v1455q160 41 324 41q287 0 412 -167t125 -581q0 -299 -59.5 -473t-174.5 -244.5t-303 -70.5q-177 -1 -324 40zM338 174q41 -18 92 -18q166 0 239.5 131t73.5 481q0 317 -74.5 443t-238.5 126q-51 0 -92 -18v-1145z" />
<glyph unicode="E" d="M160 0v1495h717v-178h-488v-426h467v-174h-467v-539h488v-178h-717z" />
<glyph unicode="F" d="M180 0v1495h697v-178h-467v-426h446v-174h-446v-717h-230z" />
<glyph unicode="G" d="M72 758q0 393 138 575.5t415 182.5q133 0 256 -46v-184q-133 49 -256 49q-168 0 -248 -130t-80 -447q0 -324 76 -463t217 -139q68 0 123 24v537h-258v174h477v-840q-160 -72 -348 -71q-512 0 -512 778z" />
<glyph unicode="H" d="M102 0v1495h224v-604h364v604h232v-1495h-232v717h-364v-717h-224z" />
<glyph unicode="I" d="M164 0v178h229v1139h-229v178h696v-178h-229v-1139h229v-178h-696z" />
<glyph unicode="J" d="M102 45v191q63 -33 148.5 -55.5t142.5 -22.5q109 0 156 49t47 174v936h-330v178h563v-1122q0 -223 -91 -308t-324 -85q-175 -1 -312 65z" />
<glyph unicode="K" d="M127 0v1495h231v-655h4l349 655h247l-393 -713l402 -782h-248l-357 717h-4v-717h-231z" />
<glyph unicode="L" d="M195 0v1495h229v-1317h477v-178h-706z" />
<glyph unicode="M" d="M45 0l78 1495h270l125 -952h4l123 952h256l78 -1495h-219l-31 1270h-4l-125 -922h-194l-119 922h-4l-35 -1270h-203z" />
<glyph unicode="N" d="M123 0v1495h237l320 -1085h6v1085h215v-1495h-229l-320 1085h-4v-1085h-225z" />
<glyph unicode="O" d="M61 747.5q0 288.5 50.5 458.5t146.5 240t254 70t254 -70t146.5 -240t50.5 -458.5t-50.5 -458.5t-146.5 -239.5t-254 -69.5t-254 69.5t-146.5 239.5t-50.5 458.5zM279 747.5q0 -337.5 55 -463.5t178 -126t178 126t55 463.5t-55 463.5t-178 126t-178 -126t-55 -463.5z" />
<glyph unicode="P" d="M127 0v1475q170 41 348 41q246 0 358.5 -118t112.5 -382q0 -268 -115.5 -391t-355.5 -123q-45 0 -117 10v-512h-231zM358 692q43 -14 117 -14q127 0 188.5 78t61.5 260q0 170 -61.5 245.5t-188.5 75.5q-68 0 -117 -16v-629z" />
<glyph unicode="Q" d="M61 747.5q0 288.5 50.5 458.5t146.5 240t254 70t254 -70t146.5 -240t50.5 -458q0 -297 -50.5 -462t-156.5 -239v-4q80 -49 145.5 -144.5t91.5 -205.5h-237q-37 162 -92.5 224.5t-151.5 62.5q-158 0 -254 69.5t-146.5 239.5t-50.5 458.5zM279 747.5q0 -337.5 55 -463.5 t178 -126t178 126t55 463.5t-55 463.5t-178 126t-178 -126t-55 -463.5z" />
<glyph unicode="R" d="M119 0v1475q170 41 348 41q244 0 357.5 -108t113.5 -339q0 -293 -229 -385l-2 -4q84 -72 143 -262l129 -418h-238l-118 430q-31 113 -72 152t-123 39h-80v-621h-229zM348 799h80q156 0 221.5 61.5t65.5 208.5q0 139 -61.5 203.5t-186.5 64.5q-70 0 -119 -16v-522z" />
<glyph unicode="S" d="M123 1126q0 184 107.5 287t306.5 103q182 0 344 -62v-205q-158 88 -318 88q-100 0 -157.5 -53t-57.5 -147q0 -172 164 -248q233 -104 321.5 -215t88.5 -285q0 -410 -441 -409q-199 0 -348 98v213q158 -133 342 -133q102 0 159.5 56t57.5 165q0 100 -44 163.5t-146 112.5 q-209 96 -294 204.5t-85 266.5z" />
<glyph unicode="T" d="M92 1317v178h840v-178h-305v-1317h-230v1317h-305z" />
<glyph unicode="U" d="M102 389v1106h232v-1065q0 -158 41 -215t141 -57t141 56t41 216v1065h224v-1106q0 -221 -95.5 -315t-314.5 -94t-314.5 94t-95.5 315z" />
<glyph unicode="V" d="M45 1495h238l231 -1290h4l234 1290h227l-334 -1495h-266z" />
<glyph unicode="W" d="M20 1495h220l71 -1137h4l113 891h182l109 -1034h4l76 1280h205l-134 -1495h-266l-102 1004h-6l-121 -1004h-221z" />
<glyph unicode="X" d="M78 0l291 762l-287 733h244l188 -573h4l189 573h235l-287 -733l291 -762h-248l-188 598h-4l-189 -598h-239z" />
<glyph unicode="Y" d="M45 1495h248l221 -696h4l221 696h240l-352 -917v-578h-230v578z" />
<glyph unicode="Z" d="M139 0v178l500 1135v4h-500v178h746v-178l-500 -1135v-4h500v-178h-746z" />
<glyph unicode="[" d="M266 -317v1894h553v-147h-344v-1600h344v-147h-553z" />
<glyph unicode="\" d="M84 1495h199l657 -1577h-199z" />
<glyph unicode="]" d="M205 -170h344v1600h-344v147h553v-1894h-553v147z" />
<glyph unicode="^" d="M45 573l324 922h286l324 -922h-211l-254 775h-4l-254 -775h-211z" />
<glyph unicode="_" d="M92 -170h840v-147h-840v147z" />
<glyph unicode="`" d="M225 1659h318q86 -322 205 -615h-195q-197 291 -328 615z" />
<glyph unicode="a" d="M113 324q0 176 123.5 269t373.5 93h58v35q0 121 -32 159t-140 38q-147 0 -332 -74v176q182 66 344 65q225 0 304 -81.5t79 -323.5v-635q-168 -66 -359 -65q-201 0 -310 90t-109 254zM330 324q0 -88 53 -136.5t149 -48.5q70 0 136 27v366h-58q-147 0 -213.5 -51 t-66.5 -157z" />
<glyph unicode="b" d="M133 45v1491h225v-496q92 45 195 45q193 0 286 -129t93 -424q0 -301 -108.5 -426.5t-342.5 -125.5q-198 -1 -348 65zM358 166q59 -27 134 -27q109 0 162 88t53 305q0 211 -44 298.5t-135 87.5q-106 0 -170 -70v-682z" />
<glyph unicode="c" d="M119 532q0 553 479 553q147 0 266 -41v-368h-213v235q-25 6 -57 7q-115 0 -180.5 -96.5t-65.5 -289.5q0 -197 76 -295t207 -98q109 0 225 60v-168q-121 -51 -252 -51q-231 0 -358 139t-127 413z" />
<glyph unicode="d" d="M92 532q0 295 93.5 424t285.5 129q102 0 195 -45v496h225v-1491q-150 -66 -348 -65q-233 0 -342 125.5t-109 426.5zM317 532q0 -217 53.5 -305t161.5 -88q74 0 134 27v682q-63 70 -170 70q-90 0 -134.5 -87.5t-44.5 -298.5z" />
<glyph unicode="e" d="M98 532.5q0 552.5 430 552.5q197 0 293.5 -130t96.5 -418q0 -16 -5 -82h-581q10 -168 73.5 -239t188.5 -71q119 0 266 56v-170q-154 -51 -291 -51q-471 0 -471 552.5zM330 614h364q-2 168 -44 239t-128 71q-94 0 -139 -68t-53 -242z" />
<glyph unicode="f" d="M139 858v166h226v119q0 209 70.5 291t244.5 82q113 0 205 -25v-168q-70 29 -158 29q-63 0 -90 -16.5t-38 -70t-11 -175.5v-66h297v-166h-297v-858h-223v858h-226z" />
<glyph unicode="g" d="M102 563q0 281 111 401.5t360 120.5q180 0 328 -45v-958q0 -258 -175 -405.5t-490 -147.5v172q213 0 326.5 92t113.5 258v31q-84 -41 -180 -41q-394 0 -394 522zM328 563q0 -356 194 -356q88 0 154 47v651q-57 12 -113 13q-123 0 -179 -80t-56 -275z" />
<glyph unicode="h" d="M133 0v1536h225v-512q113 61 236 61q166 0 241.5 -87t75.5 -285v-713h-219v655q0 162 -31.5 212.5t-123.5 50.5q-100 0 -179 -82v-836h-225z" />
<glyph unicode="i" d="M195 899v166h501v-1065h-227v899h-274zM426 1300v256h270v-256h-270z" />
<glyph unicode="j" d="M119 -299q184 0 274 86t90 272v840h-272v166h502v-1004q0 -532 -594 -532v172zM442 1300v256h271v-256h-271z" />
<glyph unicode="k" d="M133 0v1536h225v-901l344 430h261l-426 -512l426 -553h-265l-340 465v-465h-225z" />
<glyph unicode="l" d="M113 1329v166h503v-1329h275v-166h-504v1329h-274z" />
<glyph unicode="m" d="M41 0v1008q127 78 289 77q117 0 182 -51q90 51 203 51q156 0 212 -58t56 -228v-799h-207v819q0 57 -16.5 78t-57.5 21q-55 0 -84 -29v-889h-204v819q0 55 -16.5 77t-59.5 22q-53 0 -82 -29v-889h-215z" />
<glyph unicode="n" d="M123 0v999q152 86 358 86q250 0 335 -75.5t85 -292.5v-717h-221v727q0 109 -41 150t-152 41q-80 0 -139 -46v-872h-225z" />
<glyph unicode="o" d="M82 532.5q0 290.5 106.5 421.5t323.5 131t323.5 -131t106.5 -421.5t-106.5 -421.5t-323.5 -131t-323.5 131t-106.5 421.5zM311 532.5q0 -223.5 46 -304.5t155 -81t155 81t46 304.5t-46 304.5t-155 81t-155 -81t-46 -304.5z" />
<glyph unicode="p" d="M127 -451v1471q160 66 348 65q236 0 343.5 -128t107.5 -425q0 -553 -394 -552q-96 0 -180 40v-471h-225zM352 193q66 -47 156 -48q195 0 194 387q0 211 -52 298.5t-163 87.5q-76 0 -135 -23v-702z" />
<glyph unicode="q" d="M98 532q0 297 107.5 425t343.5 128q188 0 348 -65v-1471h-225v471q-84 -41 -180 -40q-394 -1 -394 552zM322 532q0 -387 194 -387q90 0 156 48v702q-59 23 -135 23q-111 0 -163 -87.5t-52 -298.5z" />
<glyph unicode="r" d="M201 0v979q324 106 676 106v-170q-240 0 -453 -59v-856h-223z" />
<glyph unicode="s" d="M139 788q0 143 96.5 220t286.5 77q182 0 338 -45v-170q-168 51 -317 52q-180 0 -181 -134q0 -57 36 -91.5t124 -57.5q217 -51 296 -127t79 -225q0 -147 -103.5 -227t-291.5 -80q-197 0 -355 65v180q168 -80 320 -80q109 0 156 34t47 108q0 66 -38 102.5t-136 61.5 q-195 49 -276 127.5t-81 209.5z" />
<glyph unicode="t" d="M113 858v166h211v389h223v-389h344v-166h-344v-510q0 -121 26.5 -154.5t122.5 -33.5q86 0 174 30v-186q-96 -25 -215 -24q-186 0 -258.5 69.5t-72.5 257.5v551h-211z" />
<glyph unicode="u" d="M133 338v727h219v-727q0 -111 38 -151t138 -40q80 0 140 41l-2 877h225v-999q-152 -86 -359 -86q-231 0 -315 75.5t-84 282.5z" />
<glyph unicode="v" d="M82 1065h233l199 -901h4l199 901h225l-287 -1065h-286z" />
<glyph unicode="w" d="M31 1065h211l65 -809h4l125 809h174l117 -881h6l74 881h186l-133 -1065h-250l-108 838h-4l-123 -838h-211z" />
<glyph unicode="x" d="M92 0l277 532l-277 533h240l182 -406h4l182 406h232l-277 -533l277 -532h-248l-174 399h-4l-174 -399h-240z" />
<glyph unicode="y" d="M72 1065h223l227 -778h4l213 778h234l-490 -1516h-225l168 471z" />
<glyph unicode="z" d="M147 0v166l469 729v4h-469v166h730v-166l-469 -729v-4h469v-166h-730z" />
<glyph unicode="{" d="M113 551v158h94q184 0 184 247v304q0 170 72 243.5t229 73.5h199v-137h-117q-127 0 -155.5 -33t-28.5 -182v-275q0 -125 -49 -199.5t-156 -119.5v-2q106 -45 155.5 -120t49.5 -200v-274q0 -150 28.5 -182.5t155.5 -32.5h117v-137h-199q-158 0 -229.5 73.5t-71.5 243.5 v303q0 248 -184 248h-94z" />
<glyph unicode="|" d="M410 -451v2110h204v-2110h-204z" />
<glyph unicode="}" d="M133 -180h117q127 0 155.5 32.5t28.5 182.5v274q0 125 49 200t156 120v2q-106 45 -155.5 119.5t-49.5 199.5v275q0 150 -28.5 182.5t-155.5 32.5h-117v137h199q158 0 229.5 -73.5t71.5 -243.5v-304q0 -129 45 -188t137 -59h96v-158h-96q-92 0 -137 -59.5t-45 -188.5v-303 q0 -170 -72 -243.5t-229 -73.5h-199v137z" />
<glyph unicode="~" d="M92 444v154l250 141q86 48 118 48h1q31 -1 80 -58l73 -82q18 -20 26.5 -20t39.5 16l252 141v-153l-250 -142q-86 -48 -118 -48h-1q-31 1 -80 59l-73 82q-18 20 -26.5 20t-39.5 -16z" />
<glyph unicode="&#xa0;" />
<glyph unicode="&#xa1;" d="M373 -451l33 1035h212l33 -1035h-278zM373 758v286h278v-286h-278z" />
<glyph unicode="&#xa2;" d="M143 532.5q0 235.5 95.5 371.5t269.5 171v338h164v-330q104 -6 209 -49v-166q-102 53 -209 56v-783q102 2 209 58v-168q-104 -43 -209 -49v-351h-164v359q-174 35 -269.5 171t-95.5 371.5zM373 532.5q0 -258.5 135 -350.5v701q-135 -92 -135 -350.5z" />
<glyph unicode="&#xa3;" d="M125 0v195q61 6 101 83.5t40 223.5v178h-123v164h123v237q0 211 96.5 323t272.5 112q104 0 209 -39v-181q-90 41 -187 41q-86 0 -123.5 -48t-37.5 -161v-284h313v-164h-313v-195q0 -236 -101 -303v-4h504v-178h-774z" />
<glyph unicode="&#xa4;" d="M55 408l138 137q-59 96 -59.5 202.5t59.5 202.5l-138 137l117 117l137 -137q96 59 202.5 59t203.5 -59l137 137l117 -117l-138 -137q59 -96 59.5 -202.5t-59.5 -202.5l138 -137l-117 -117l-137 137q-96 -59 -202.5 -59t-203.5 59l-137 -137zM311 747.5q0 -81.5 58.5 -140 t142.5 -58.5t142.5 58.5t58.5 140t-58.5 140t-142.5 58.5t-142.5 -58.5t-58.5 -140z" />
<glyph unicode="&#xa5;" d="M45 1495h248l221 -707h4l221 707h240l-334 -866h266v-178h-284v-451h-230v451h-284v178h266z" />
<glyph unicode="&#xa6;" d="M410 -287v738h204v-738h-204zM410 758v737h204v-737h-204z" />
<glyph unicode="&#xa7;" d="M107 1155q0 168 108.5 264.5t296.5 96.5t358 -70v-189q-184 78 -358 78q-88 0 -137 -43t-49 -121q0 -127 166 -170q219 -57 318 -151t99 -232q0 -199 -151 -296q160 -86 160 -269q0 -168 -109 -264t-297 -96q-184 0 -358 71v187q184 -78 358 -78q88 0 137 43t49 121 q0 127 -166 170q-219 57 -318 151.5t-99 231.5q0 199 151 297q-159 86 -159 268zM309 614q0 -162 219 -213q10 -2 27 -6q68 10 114 65.5t46 133.5q0 162 -219 213q-10 2 -27 6q-68 -10 -114 -65.5t-46 -133.5z" />
<glyph unicode="&#xa8;" d="M225 1239v297h215v-297h-215zM584 1239v297h215v-297h-215z" />
<glyph unicode="&#xa9;" d="M16 747.5q0 323.5 138.5 502.5t357.5 179.5t357.5 -179t138.5 -503t-138.5 -502.5t-357.5 -179t-357.5 179t-138.5 502.5zM127 747.5q0 -262.5 103.5 -415t281.5 -152.5t281.5 152.5t103.5 415t-103.5 415t-281.5 152.5t-281.5 -152.5t-103.5 -415zM256 747.5 q0 421.5 281 421.5q86 0 165 -28v-119q-76 29 -141 29q-84 0 -126 -66.5t-42 -236.5q0 -303 174 -304q63 0 140 35v-125q-80 -29 -164 -28q-287 0 -287 421.5z" />
<glyph unicode="&#xaa;" d="M133 379v149h758v-149h-758zM190 897q0 291 398 291h47v29q0 96 -24.5 125.5t-112.5 29.5q-123 0 -267 -57v139q141 53 275 53q180 0 243.5 -65.5t63.5 -257.5v-508q-137 -53 -287 -53q-162 0 -249 71.5t-87 202.5zM365 897q0 -70 43 -107.5t118 -37.5q55 0 109 20v293 h-47q-117 0 -170 -42t-53 -126z" />
<glyph unicode="&#xab;" d="M82 502v184l418 399v-241l-271 -250l271 -250v-242zM504 502v184l418 399v-241l-269 -250l269 -250v-242z" />
<glyph unicode="&#xac;" d="M115 750v196h794v-676h-225v480h-569z" />
<glyph unicode="&#xad;" d="M195 496v196h634v-196h-634z" />
<glyph unicode="&#xae;" d="M16 747.5q0 323.5 138.5 502.5t357.5 179t357.5 -179t138.5 -502.5t-138.5 -502.5t-357.5 -179t-357.5 179t-138.5 502.5zM127 747.5q0 -262.5 103.5 -415t281.5 -152.5t281.5 152.5t103.5 415t-103.5 415t-281.5 152.5t-281.5 -152.5t-103.5 -415zM299 336v819 q94 16 201 16q139 0 201.5 -59t62.5 -192q0 -170 -115 -224v-2q31 -20 68 -135l67 -223h-147l-64 231q-14 53 -32.5 71.5t-53.5 18.5h-45v-321h-143zM442 776h39q80 0 112 30t32 114q0 70 -31 100.5t-98 30.5q-33 0 -54 -7v-268z" />
<glyph unicode="&#xaf;" d="M154 1327v148h716v-148h-716z" />
<glyph unicode="&#xb0;" d="M215 1218.5q0 122.5 87 210t210 87.5t210 -87.5t87 -210t-87 -209.5t-210 -87t-210 87t-87 209.5zM373 1218.5q0 -57.5 41 -97.5t98 -40t98 40t41 97.5t-41 97.5t-98 40t-98 -40t-41 -97.5z" />
<glyph unicode="&#xb1;" d="M102 -82v186h820v-186h-820zM102 727v184h301v420h218v-420h301v-184h-301v-420h-218v420h-301z" />
<glyph unicode="&#xb2;" d="M287 1315v123q100 70 219 69q109 0 167 -61.5t58 -179.5q0 -215 -291 -549v-4h297v-115h-450v115q297 342 297 542q0 76 -26 107t-83 31q-77 0 -188 -78z" />
<glyph unicode="&#xb3;" d="M274 629v125q90 -53 189 -54q150 0 149 158q0 84 -44 122t-154 38h-23v117h23q100 0 145 34.5t45 110.5q0 115 -133 115q-78 0 -178 -52v121q111 43 213 43q242 0 242 -207q0 -170 -148 -221v-2q160 -31 160 -223q0 -268 -277 -268q-103 0 -209 43z" />
<glyph unicode="&#xb4;" d="M276 1208l216 359h307l-318 -359h-205z" />
<glyph unicode="&#xb5;" d="M133 -451v1516h219v-727q0 -111 38 -151t138 -40q80 0 140 41l-2 877h225v-999q-152 -86 -359 -86q-115 0 -180 16v-447h-219z" />
<glyph unicode="&#xb6;" d="M70 1024q0 195 108.5 333t259.5 138h455v-1782h-174v1587h-107v-1587h-174v840q-152 0 -260 138t-108 333z" />
<glyph unicode="&#xb7;" d="M348 420v348h328v-348h-328z" />
<glyph unicode="&#xb8;" d="M233 -217q92 -49 193 -49q66 0 101.5 33.5t35.5 93.5q0 88 -67 149h202q72 -96 72 -211q0 -113 -79 -181.5t-236 -68.5q-109 0 -222 41v193z" />
<glyph unicode="&#xb9;" d="M291 1245v127l215 123h147v-897h-147v760l-2 2z" />
<glyph unicode="&#xba;" d="M133 379v149h758v-149h-758zM168 1065q0 231 86 336.5t258 105.5t258 -105.5t86 -336.5t-86 -336.5t-258 -105.5t-258 105.5t-86 336.5zM352 1065q0 -178 37 -242.5t123 -64.5t123 64.5t37 242.5t-37 242.5t-123 64.5t-123 -64.5t-37 -242.5z" />
<glyph unicode="&#xbb;" d="M102 102v242l269 250l-269 250v241l418 -399v-184zM524 102v242l271 250l-271 250v241l418 -399v-184z" />
<glyph unicode="&#xbc;" d="M25 102l819 779h155l-819 -779h-155zM53 1245v127l215 123h148v-897h-148v760l-2 2zM446 -145l293 591h158v-591h102v-113h-102v-193h-143v193h-308v113zM561 -143v-2h193v389h-2z" />
<glyph unicode="&#xbd;" d="M25 102l819 779h155l-819 -779h-155zM53 1245v127l215 123h148v-897h-148v760l-2 2zM526 266v123q100 70 219 70q109 0 167.5 -61.5t58.5 -180.5q0 -215 -291 -549v-4h297v-115h-451v115q297 342 297 543q0 76 -25.5 106.5t-82.5 30.5q-78 0 -189 -78z" />
<glyph unicode="&#xbe;" d="M25 102l819 779h155l-819 -779h-155zM59 629v125q90 -53 189 -54q150 0 149 158q0 86 -43 123t-153 37h-25v117h25q100 0 144 34.5t44 110.5q0 115 -133 115q-78 0 -178 -52v121q111 43 213 43q242 0 241 -207q0 -170 -147 -221v-2q160 -31 160 -223q0 -268 -277 -268 q-103 0 -209 43zM446 -145l293 591h158v-591h102v-113h-102v-193h-143v193h-308v113zM561 -143v-2h193v389h-2z" />
<glyph unicode="&#xbf;" d="M98 -139q0 78 27 146.5t52.5 103t80.5 98.5q55 61 84 101t58.5 114t33.5 160h217q0 -106 -34.5 -200.5t-66.5 -138.5t-93 -116q-49 -57 -68.5 -83t-42 -75t-22.5 -98q0 -166 204 -166q168 0 369 117v-209q-190 -86 -401 -86q-188 0 -293 88t-105 244zM406 758v286h274 v-286h-274z" />
<glyph unicode="&#xc0;" d="M25 0l354 1495h266l354 -1495h-239l-76 393h-352l-76 -393h-231zM225 1976h307l216 -358h-205zM367 567h282l-139 703h-4z" />
<glyph unicode="&#xc1;" d="M25 0l354 1495h266l354 -1495h-239l-76 393h-352l-76 -393h-231zM276 1618l216 358h307l-318 -358h-205zM367 567h282l-139 703h-4z" />
<glyph unicode="&#xc2;" d="M25 0l354 1495h266l354 -1495h-239l-76 393h-352l-76 -393h-231zM102 1618l256 358h308l256 -358h-265l-143 262h-4l-143 -262h-265zM367 567h282l-139 703h-4z" />
<glyph unicode="&#xc3;" d="M25 0l354 1495h266l354 -1495h-239l-76 393h-352l-76 -393h-231zM160 1614q0 199 36.5 280.5t108.5 81.5q78 0 225 -114q90 -70 121 -70q14 0 20.5 10t10.5 46t4 108h178q0 -199 -36.5 -281t-108.5 -82q-78 0 -225 115q-90 70 -121 70q-14 0 -20.5 -10.5t-10.5 -46 t-4 -107.5h-178zM367 567h282l-139 703h-4z" />
<glyph unicode="&#xc4;" d="M25 0l354 1495h266l354 -1495h-239l-76 393h-352l-76 -393h-231zM225 1649v297h215v-297h-215zM367 567h282l-139 703h-4zM584 1649v297h215v-297h-215z" />
<glyph unicode="&#xc5;" d="M25 0l354 1495h266l354 -1495h-239l-76 393h-352l-76 -393h-231zM225 1847.5q0 118.5 84 202.5t203 84t203 -84t84 -202.5t-84 -202.5t-203 -84t-203 84t-84 202.5zM367 567h282l-139 703h-4zM369 1847.5q0 -59.5 42 -101.5t101 -42t101 42t42 101.5t-42 101.5t-101 42 t-101 -42t-42 -101.5z" />
<glyph unicode="&#xc6;" d="M31 0l299 1495h643v-178h-266v-426h245v-172h-245v-541h266v-178h-477v393h-189l-65 -393h-211zM338 567h158v748h-33z" />
<glyph unicode="&#xc7;" d="M92 768q0 748 512 748q154 0 277 -46v-462h-219v321q-23 6 -48 6q-297 0 -297 -567q0 -612 328 -612q104 0 225 63v-188q-74 -31 -155 -43q55 -86 55 -189q0 -113 -79 -181.5t-236 -68.5q-109 0 -222 41v193q92 -49 193 -49q66 0 101.5 33.5t35.5 93.5q0 70 -43 125 q-428 65 -428 782z" />
<glyph unicode="&#xc8;" d="M160 0v1495h717v-178h-488v-426h467v-174h-467v-539h488v-178h-717zM225 1976h307l216 -358h-205z" />
<glyph unicode="&#xc9;" d="M160 0v1495h717v-178h-488v-426h467v-174h-467v-539h488v-178h-717zM276 1618l216 358h307l-318 -358h-205z" />
<glyph unicode="&#xca;" d="M102 1618l256 358h308l256 -358h-265l-143 262h-4l-143 -262h-265zM160 0v1495h717v-178h-488v-426h467v-174h-467v-539h488v-178h-717z" />
<glyph unicode="&#xcb;" d="M160 0v1495h717v-178h-488v-426h467v-174h-467v-539h488v-178h-717zM225 1649v297h215v-297h-215zM584 1649v297h215v-297h-215z" />
<glyph unicode="&#xcc;" d="M164 0v178h229v1139h-229v178h696v-178h-229v-1139h229v-178h-696zM225 1976h307l216 -358h-205z" />
<glyph unicode="&#xcd;" d="M164 0v178h229v1139h-229v178h696v-178h-229v-1139h229v-178h-696zM276 1618l216 358h307l-318 -358h-205z" />
<glyph unicode="&#xce;" d="M102 1618l256 358h308l256 -358h-265l-143 262h-4l-143 -262h-265zM164 0v178h229v1139h-229v178h696v-178h-229v-1139h229v-178h-696z" />
<glyph unicode="&#xcf;" d="M164 0v178h229v1139h-229v178h696v-178h-229v-1139h229v-178h-696zM225 1649v297h215v-297h-215zM584 1649v297h215v-297h-215z" />
<glyph unicode="&#xd0;" d="M16 647v242h127v586q160 41 322 41q262 0 382 -168t120 -580q0 -297 -58.5 -473t-165 -245.5t-278.5 -69.5q-174 0 -322 40v627h-127zM373 174q41 -18 92 -18q92 0 150.5 49t94 188t35.5 375q0 311 -70.5 440t-209.5 129q-51 0 -92 -18v-430h225v-242h-225v-473z" />
<glyph unicode="&#xd1;" d="M123 0v1495h237l320 -1085h6v1085h215v-1495h-227l-322 1085h-4v-1085h-225zM160 1614q0 199 36.5 280.5t108.5 81.5q78 0 225 -114q90 -70 121 -70q14 0 20.5 10t10.5 46t4 108h178q0 -199 -36.5 -281t-108.5 -82q-78 0 -225 115q-90 70 -121 70q-14 0 -20.5 -10.5 t-10.5 -46t-4 -107.5h-178z" />
<glyph unicode="&#xd2;" d="M61 747.5q0 288.5 50.5 458.5t146.5 240t254 70t254 -70t146.5 -240t50.5 -458.5t-50.5 -458.5t-146.5 -239.5t-254 -69.5t-254 69.5t-146.5 239.5t-50.5 458.5zM225 1976h307l216 -358h-205zM279 747.5q0 -337.5 55 -463.5t178 -126t178 126t55 463.5t-55 463.5 t-178 126t-178 -126t-55 -463.5z" />
<glyph unicode="&#xd3;" d="M61 747.5q0 288.5 50.5 458.5t146.5 240t254 70t254 -70t146.5 -240t50.5 -458.5t-50.5 -458.5t-146.5 -239.5t-254 -69.5t-254 69.5t-146.5 239.5t-50.5 458.5zM276 1618l216 358h307l-318 -358h-205zM279 747.5q0 -337.5 55 -463.5t178 -126t178 126t55 463.5 t-55 463.5t-178 126t-178 -126t-55 -463.5z" />
<glyph unicode="&#xd4;" d="M61 747.5q0 288.5 50.5 458.5t146.5 240t254 70t254 -70t146.5 -240t50.5 -458.5t-50.5 -458.5t-146.5 -239.5t-254 -69.5t-254 69.5t-146.5 239.5t-50.5 458.5zM102 1618l256 358h308l256 -358h-265l-143 262h-4l-143 -262h-265zM279 747.5q0 -337.5 55 -463.5t178 -126 t178 126t55 463.5t-55 463.5t-178 126t-178 -126t-55 -463.5z" />
<glyph unicode="&#xd5;" d="M61 747.5q0 288.5 50.5 458.5t146.5 240t254 70t254 -70t146.5 -240t50.5 -458.5t-50.5 -458.5t-146.5 -239.5t-254 -69.5t-254 69.5t-146.5 239.5t-50.5 458.5zM160 1614q0 199 36.5 280.5t108.5 81.5q78 0 225 -114q90 -70 121 -70q14 0 20.5 10t10.5 46t4 108h178 q0 -199 -36.5 -281t-108.5 -82q-78 0 -225 115q-90 70 -121 70q-14 0 -20.5 -10.5t-10.5 -46t-4 -107.5h-178zM279 747.5q0 -337.5 55 -463.5t178 -126t178 126t55 463.5t-55 463.5t-178 126t-178 -126t-55 -463.5z" />
<glyph unicode="&#xd6;" d="M61 747.5q0 288.5 50.5 458.5t146.5 240t254 70t254 -70t146.5 -240t50.5 -458.5t-50.5 -458.5t-146.5 -239.5t-254 -69.5t-254 69.5t-146.5 239.5t-50.5 458.5zM225 1649v297h215v-297h-215zM279 747.5q0 -337.5 55 -463.5t178 -126t178 126t55 463.5t-55 463.5 t-178 126t-178 -126t-55 -463.5zM584 1649v297h215v-297h-215z" />
<glyph unicode="&#xd7;" d="M86 174l295 420l-295 420l176 123l250 -357l250 357l176 -123l-295 -420l295 -420l-176 -123l-250 357l-250 -357z" />
<glyph unicode="&#xd8;" d="M31 27l102 198q-72 180 -72 523q0 289 50.5 458.5t146.5 239.5t254 70q150 0 242 -64l55 111l184 -95l-102 -198q72 -180 72 -522q0 -289 -50.5 -459t-146.5 -239.5t-254 -69.5q-150 0 -242 63l-55 -111zM279 748q0 -92 8 -220l372 738q-49 72 -147 71 q-123 0 -178 -125.5t-55 -463.5zM365 229q49 -72 147 -71q123 0 178 126t55 464q0 92 -8 219z" />
<glyph unicode="&#xd9;" d="M102 389v1106h232v-1065q0 -158 41 -215t141 -57t141 56t41 216v1065h224v-1106q0 -221 -95.5 -315t-314.5 -94t-314.5 94t-95.5 315zM225 1976h307l216 -358h-205z" />
<glyph unicode="&#xda;" d="M102 389v1106h232v-1065q0 -158 41 -215t141 -57t141 56t41 216v1065h224v-1106q0 -221 -95.5 -315t-314.5 -94t-314.5 94t-95.5 315zM276 1618l216 358h307l-318 -358h-205z" />
<glyph unicode="&#xdb;" d="M102 389v1106h232v-1065q0 -158 41 -215t141 -57t141 56t41 216v1065h224v-1106q0 -221 -95.5 -315t-314.5 -94t-314.5 94t-95.5 315zM102 1618l256 358h308l256 -358h-265l-143 262h-4l-143 -262h-265z" />
<glyph unicode="&#xdc;" d="M102 389v1106h232v-1065q0 -158 41 -215t141 -57t141 56t41 216v1065h224v-1106q0 -221 -95.5 -315t-314.5 -94t-314.5 94t-95.5 315zM225 1649v297h215v-297h-215zM584 1649v297h215v-297h-215z" />
<glyph unicode="&#xdd;" d="M45 1495h248l221 -696h4l221 696h240l-352 -917v-578h-230v578zM276 1618l216 358h307l-318 -358h-205z" />
<glyph unicode="&#xde;" d="M135 0v1495h230v-246q61 10 127 11q242 0 352 -111t110 -356q0 -252 -111.5 -366t-344.5 -114q-55 0 -133 11v-324h-230zM365 502q51 -10 112 -10q129 0 191.5 67.5t62.5 233.5q0 154 -62.5 221t-191.5 67q-70 0 -112 -12v-567z" />
<glyph unicode="&#xdf;" d="M113 0v1083q0 266 90 369.5t317 103.5q190 0 296 -86t106 -235q0 -78 -44 -174t-88.5 -171t-44.5 -99q0 -29 57.5 -110t114 -185.5t56.5 -190.5q0 -160 -81 -242.5t-235 -82.5q-92 0 -229 28l16 176q102 -29 174 -28q117 0 117 133q0 80 -113.5 264t-113.5 238 q0 55 92 228t92 230q0 70 -39 101.5t-125 31.5q-109 0 -147.5 -57t-38.5 -233v-1092h-229z" />
<glyph unicode="&#xe0;" d="M113 324q0 176 123.5 269t373.5 93h58v35q0 121 -32 159t-140 38q-147 0 -332 -74v176q182 66 344 65q225 0 304 -81.5t79 -323.5v-635q-168 -66 -359 -65q-201 0 -310 90t-109 254zM225 1567h307l216 -359h-205zM330 324q0 -88 53 -135.5t149 -47.5q76 0 136 25v366h-58 q-147 0 -213.5 -51t-66.5 -157z" />
<glyph unicode="&#xe1;" d="M113 324q0 176 123.5 269t373.5 93h58v35q0 121 -32 159t-140 38q-147 0 -332 -74v176q182 66 344 65q225 0 304 -81.5t79 -323.5v-635q-168 -66 -359 -65q-201 0 -310 90t-109 254zM276 1208l216 359h307l-318 -359h-205zM330 324q0 -88 53 -135.5t149 -47.5 q76 0 136 25v366h-58q-147 0 -213.5 -51t-66.5 -157z" />
<glyph unicode="&#xe2;" d="M102 1208l256 359h308l256 -359h-265l-143 262h-4l-143 -262h-265zM113 324q0 176 123.5 269t373.5 93h58v35q0 121 -32 159t-140 38q-147 0 -332 -74v176q182 66 344 65q225 0 304 -81.5t79 -323.5v-635q-168 -66 -359 -65q-201 0 -310 90t-109 254zM330 324 q0 -88 53 -135.5t149 -47.5q76 0 136 25v366h-58q-147 0 -213.5 -51t-66.5 -157z" />
<glyph unicode="&#xe3;" d="M113 324q0 176 123.5 269t373.5 93h58v35q0 121 -32 159t-140 38q-147 0 -332 -74v176q182 66 344 65q225 0 304 -81.5t79 -323.5v-635q-168 -66 -359 -65q-201 0 -310 90t-109 254zM160 1184q0 199 36.5 280.5t108.5 81.5q78 0 225 -114q90 -70 121 -70q14 0 20.5 10 t10.5 46t4 108h178q0 -199 -36.5 -281t-108.5 -82q-78 0 -225 115q-90 70 -121 70q-14 0 -20.5 -10.5t-10.5 -46.5t-4 -107h-178zM330 324q0 -88 53 -135.5t149 -47.5q76 0 136 25v366h-58q-147 0 -213.5 -51t-66.5 -157z" />
<glyph unicode="&#xe4;" d="M113 324q0 176 123.5 269t373.5 93h60v35q0 119 -32 158t-142 39q-147 0 -332 -74v176q182 66 344 65q225 0 304 -81.5t79 -323.5v-635q-168 -66 -359 -65q-201 0 -310 90t-109 254zM225 1239v297h215v-297h-215zM330 324q0 -88 53 -135.5t149 -47.5q78 0 138 25v366h-60 q-147 0 -213.5 -51t-66.5 -157zM584 1239v297h215v-297h-215z" />
<glyph unicode="&#xe5;" d="M113 324q0 176 123.5 269t373.5 93h60v35q0 119 -32 158t-142 39q-147 0 -332 -74v176q182 66 344 65q225 0 304 -81.5t79 -323.5v-635q-168 -66 -359 -65q-201 0 -310 90t-109 254zM225 1417q0 119 84 203t203 84t203 -84t84 -203t-84 -202.5t-203 -83.5t-203 83.5 t-84 202.5zM330 324q0 -88 53 -135.5t149 -47.5q78 0 138 25v366h-60q-147 0 -213.5 -51t-66.5 -157zM369 1417.5q0 -59.5 42 -101.5t101 -42t101 42t42 101.5t-42 101.5t-101 42t-101 -42t-42 -101.5z" />
<glyph unicode="&#xe6;" d="M31 303q0 186 93 284.5t265 98.5h27v49q0 104 -22.5 143.5t-76.5 39.5q-45 0 -123.5 -24t-132.5 -54v176q53 29 130 49t126 20q164 0 222 -104q70 104 198 104q127 0 191.5 -114.5t64.5 -372.5q0 -61 -8 -143h-367q6 -180 42 -245t114 -65q74 0 184 60v-174 q-104 -51 -200 -51q-168 0 -244 161q-74 -162 -248 -161q-106 0 -170.5 82.5t-64.5 240.5zM215 317q0 -176 90 -176q61 0 86 77t25 314h-27q-80 0 -127 -57.5t-47 -157.5zM618 616h199q-2 186 -23.5 247t-72.5 61q-49 0 -74 -63t-29 -245z" />
<glyph unicode="&#xe7;" d="M119 532q0 553 479 553q147 0 266 -41v-368h-213v237q-16 4 -57 5q-115 0 -180.5 -96.5t-65.5 -289.5q0 -197 76 -294t207 -97q113 0 225 58v-168q-74 -29 -143 -41q57 -84 57 -191q0 -113 -79 -181.5t-236 -68.5q-109 0 -222 41v193q92 -49 193 -49q66 0 101.5 33.5 t35.5 93.5q0 68 -43 123q-193 23 -297 160.5t-104 387.5z" />
<glyph unicode="&#xe8;" d="M98 532.5q0 552.5 430 552.5q197 0 293.5 -130t96.5 -418q0 -16 -5 -82h-581q10 -168 73.5 -239t188.5 -71q113 0 266 58v-172q-154 -51 -291 -51q-471 0 -471 552.5zM225 1567h307l216 -359h-205zM330 614h364q-2 168 -44 239t-128 71q-94 0 -139 -68t-53 -242z" />
<glyph unicode="&#xe9;" d="M98 532.5q0 552.5 430 552.5q197 0 293.5 -130t96.5 -418q0 -16 -5 -82h-581q10 -168 73.5 -239t188.5 -71q113 0 266 58v-172q-154 -51 -291 -51q-471 0 -471 552.5zM276 1208l216 359h307l-318 -359h-205zM330 614h364q-2 168 -44 239t-128 71q-94 0 -139 -68t-53 -242 z" />
<glyph unicode="&#xea;" d="M98 532.5q0 552.5 430 552.5q197 0 293.5 -130t96.5 -418q0 -16 -5 -82h-581q10 -168 73.5 -239t188.5 -71q113 0 266 58v-172q-154 -51 -291 -51q-471 0 -471 552.5zM102 1208l256 359h308l256 -359h-265l-143 262h-4l-143 -262h-265zM330 614h364q-2 168 -44 239 t-128 71q-94 0 -139 -68t-53 -242z" />
<glyph unicode="&#xeb;" d="M98 532.5q0 552.5 430 552.5q197 0 293.5 -130t96.5 -418q0 -16 -5 -82h-581q10 -168 73.5 -239t188.5 -71q113 0 266 58v-172q-154 -51 -291 -51q-471 0 -471 552.5zM225 1239v297h215v-297h-215zM330 614h364q-2 168 -44 239t-128 71q-94 0 -139 -68t-53 -242z M584 1239v297h215v-297h-215z" />
<glyph unicode="&#xec;" d="M195 899v166h501v-1065h-229v899h-272zM225 1567h307l216 -359h-205z" />
<glyph unicode="&#xed;" d="M195 899v166h501v-1065h-229v899h-272zM276 1208l216 359h307l-318 -359h-205z" />
<glyph unicode="&#xee;" d="M102 1208l256 359h308l256 -359h-265l-143 262h-4l-143 -262h-265zM195 899v166h501v-1065h-229v899h-272z" />
<glyph unicode="&#xef;" d="M195 899v166h501v-1065h-229v899h-272zM225 1239v297h215v-297h-215zM584 1239v297h215v-297h-215z" />
<glyph unicode="&#xf0;" d="M82 532.5q0 552.5 430 552.5q41 0 76 -8l2 2q-35 61 -82 105l-315 -140l-68 150l209 92q-72 27 -150 35v195q225 -29 383 -125l271 120l65 -149l-194 -88q233 -250 233 -742q0 -553 -430 -552.5t-430 553zM309 532.5q0 -219.5 47 -302.5t156 -83t156 83t47 302.5 t-47 302.5t-156 83t-156 -83t-47 -302.5z" />
<glyph unicode="&#xf1;" d="M123 0v999q152 86 358 86q250 0 335 -75.5t85 -292.5v-717h-221v727q0 109 -41 150t-152 41q-80 0 -139 -46v-872h-225zM160 1184q0 199 36.5 280.5t108.5 81.5q78 0 225 -114q90 -70 121 -70q14 0 20.5 10t10.5 46t4 108h178q0 -199 -36.5 -281t-108.5 -82 q-78 0 -225 115q-90 70 -121 70q-14 0 -20.5 -10.5t-10.5 -46.5t-4 -107h-178z" />
<glyph unicode="&#xf2;" d="M82 532.5q0 290.5 106.5 421.5t323.5 131t323.5 -131t106.5 -421.5t-106.5 -421.5t-323.5 -131t-323.5 131t-106.5 421.5zM225 1567h307l216 -359h-205zM311 532.5q0 -223.5 46 -304.5t155 -81t155 81t46 304.5t-46 304.5t-155 81t-155 -81t-46 -304.5z" />
<glyph unicode="&#xf3;" d="M82 532.5q0 290.5 106.5 421.5t323.5 131t323.5 -131t106.5 -421.5t-106.5 -421.5t-323.5 -131t-323.5 131t-106.5 421.5zM276 1208l216 359h307l-318 -359h-205zM311 532.5q0 -223.5 46 -304.5t155 -81t155 81t46 304.5t-46 304.5t-155 81t-155 -81t-46 -304.5z" />
<glyph unicode="&#xf4;" d="M82 532.5q0 290.5 106.5 421.5t323.5 131t323.5 -131t106.5 -421.5t-106.5 -421.5t-323.5 -131t-323.5 131t-106.5 421.5zM102 1208l256 359h308l256 -359h-265l-143 262h-4l-143 -262h-265zM311 532.5q0 -223.5 46 -304.5t155 -81t155 81t46 304.5t-46 304.5t-155 81 t-155 -81t-46 -304.5z" />
<glyph unicode="&#xf5;" d="M82 532.5q0 290.5 106.5 421.5t323.5 131t323.5 -131t106.5 -421.5t-106.5 -421.5t-323.5 -131t-323.5 131t-106.5 421.5zM160 1184q0 199 36.5 280.5t108.5 81.5q78 0 225 -114q90 -70 121 -70q14 0 20.5 10t10.5 46t4 108h178q0 -199 -36.5 -281t-108.5 -82 q-78 0 -225 115q-90 70 -121 70q-14 0 -20.5 -10.5t-10.5 -46.5t-4 -107h-178zM311 532.5q0 -223.5 46 -304.5t155 -81t155 81t46 304.5t-46 304.5t-155 81t-155 -81t-46 -304.5z" />
<glyph unicode="&#xf6;" d="M82 532.5q0 290.5 106.5 421.5t323.5 131t323.5 -131t106.5 -421.5t-106.5 -421.5t-323.5 -131t-323.5 131t-106.5 421.5zM225 1239v297h215v-297h-215zM311 532.5q0 -223.5 46 -304.5t155 -81t155 81t46 304.5t-46 304.5t-155 81t-155 -81t-46 -304.5zM584 1239v297h215 v-297h-215z" />
<glyph unicode="&#xf7;" d="M113 520v168h798v-168h-798zM393 0v328h238v-328h-238zM393 881v327h238v-327h-238z" />
<glyph unicode="&#xf8;" d="M51 29l101 141q-70 133 -70 362q0 291 106.5 422t323.5 131q147 0 242 -59l75 109l144 -99l-101 -141q70 -133 70 -363q0 -291 -106.5 -421.5t-323.5 -130.5q-147 0 -242 59l-75 -109zM311 532q0 -53 4 -126l328 464q-45 47 -131 48q-109 0 -155 -81.5t-46 -304.5z M381 195q45 -47 131 -48q109 0 155 81t46 304q0 53 -4 127z" />
<glyph unicode="&#xf9;" d="M133 338v727h219v-727q0 -111 38 -151t138 -40q80 0 140 41l-2 877h225v-999q-152 -86 -359 -86q-231 0 -315 75.5t-84 282.5zM225 1567h307l216 -359h-205z" />
<glyph unicode="&#xfa;" d="M133 338v727h219v-727q0 -111 38 -151t138 -40q80 0 140 41l-2 877h225v-999q-152 -86 -359 -86q-231 0 -315 75.5t-84 282.5zM276 1208l216 359h307l-318 -359h-205z" />
<glyph unicode="&#xfb;" d="M102 1208l256 359h308l256 -359h-265l-143 262h-4l-143 -262h-265zM133 338v727h219v-727q0 -111 38 -151t138 -40q80 0 140 41l-2 877h225v-999q-152 -86 -359 -86q-231 0 -315 75.5t-84 282.5z" />
<glyph unicode="&#xfc;" d="M133 338v727h219v-727q0 -111 38 -151t138 -40q80 0 140 41l-2 877h225v-999q-152 -86 -359 -86q-231 0 -315 75.5t-84 282.5zM225 1239v297h215v-297h-215zM584 1239v297h215v-297h-215z" />
<glyph unicode="&#xfd;" d="M72 1065h223l227 -778h4l215 778h232l-488 -1516h-227l168 471zM276 1208l216 359h307l-318 -359h-205z" />
<glyph unicode="&#xfe;" d="M127 -451v1987h225v-463q63 12 135 12q229 0 334 -129t105 -424q0 -553 -394 -552q-96 0 -180 40v-471h-225zM352 193q66 -47 156 -48q195 0 194 387q0 211 -52 298.5t-163 87.5q-76 0 -135 -23v-702z" />
<glyph unicode="&#xff;" d="M72 1065h223l227 -778h4l215 778h232l-488 -1516h-227l168 471zM225 1239v297h215v-297h-215zM584 1239v297h215v-297h-215z" />
<glyph unicode="&#x152;" d="M41 747.5q0 421.5 108.5 595t342.5 173.5q88 0 151 -21h350v-178h-274v-426h254v-174h-254v-539h274v-178h-350q-63 -20 -151 -20q-233 0 -342 173t-109 594.5zM258 747.5q0 -231.5 27.5 -363.5t77 -179t129.5 -47v1179q-80 0 -129.5 -47t-77 -179t-27.5 -363.5z" />
<glyph unicode="&#x153;" d="M31 532.5q0 552.5 301 552.5q129 0 198 -100q74 100 207 100q127 0 191.5 -114.5t64.5 -372.5q0 -61 -8 -143h-367q6 -180 42 -245t114 -65t184 58v-172q-104 -51 -200 -51q-141 0 -223 108q-70 -109 -203 -108q-301 0 -301 552.5zM229 532.5q0 -219.5 23.5 -302.5 t79 -83t79 83t23.5 302.5t-23.5 302.5t-79 83t-79 -83t-23.5 -302.5zM618 614h199q-2 186 -23.5 248t-72.5 62q-49 0 -73.5 -63.5t-29.5 -244.5v-2z" />
<glyph unicode="&#x178;" d="M45 1495h248l221 -696h4l221 696h240l-352 -917v-578h-230v578zM225 1649v297h215v-297h-215zM584 1649v297h215v-297h-215z" />
<glyph unicode="&#x2c6;" d="M102 1208l256 359h308l256 -359h-265l-143 262h-4l-143 -262h-265z" />
<glyph unicode="&#x2dc;" d="M160 1184q0 199 36.5 280.5t108.5 81.5q78 0 225 -114q90 -70 121 -70q14 0 20.5 10t10.5 46t4 108h178q0 -199 -36.5 -281t-108.5 -82q-78 0 -225 115q-90 70 -121 70q-14 0 -20.5 -10.5t-10.5 -46.5t-4 -107h-178z" />
<glyph unicode="&#x2013;" d="M113 543v123h798v-123h-798z" />
<glyph unicode="&#x2014;" d="M0 543v123h1024v-123h-1024z" />
<glyph unicode="&#x2018;" d="M266 983q88 315 246 614h195q-84 -309 -123 -614h-318z" />
<glyph unicode="&#x2019;" d="M297 983q84 309 123 614h317q-88 -315 -245 -614h-195z" />
<glyph unicode="&#x201a;" d="M297 -266q84 309 123 614h317q-88 -315 -245 -614h-195z" />
<glyph unicode="&#x201c;" d="M106 983q88 315 246 614h164q-84 -309 -123 -614h-287zM475 983q88 315 246 614h164q-84 -309 -123 -614h-287z" />
<glyph unicode="&#x201d;" d="M123 983q84 309 123 614h286q-88 -315 -245 -614h-164zM492 983q84 309 122 614h287q-88 -315 -246 -614h-163z" />
<glyph unicode="&#x201e;" d="M123 -266q84 309 123 614h286q-88 -315 -245 -614h-164zM492 -266q84 309 122 614h287q-88 -315 -246 -614h-163z" />
<glyph unicode="&#x2022;" d="M297 594q0 90 62.5 152.5t152.5 62.5t152.5 -62.5t62.5 -152.5t-62.5 -152.5t-152.5 -62.5t-152.5 62.5t-62.5 152.5z" />
<glyph unicode="&#x2026;" horiz-adv-x="2048" d="M209 584v307h266v-307h-266zM891 584v307h266v-307h-266zM1573 584v307h266v-307h-266z" />
<glyph unicode="&#x2039;" d="M186 594l328 471h272l-335 -471l335 -471h-272z" />
<glyph unicode="&#x203a;" d="M238 123l335 471l-335 471h272l328 -471l-328 -471h-272z" />
<glyph unicode="&#x20ac;" d="M43 500v168h135q0 12 -1 38.5t-1 41t1 41t1 38.5h-135v168h145q31 276 144.5 398.5t314.5 122.5q154 0 283 -58v-178q-133 59 -252 59q-117 0 -181.5 -76.5t-86.5 -267.5h448v-168h-461v-79v-80h461v-168h-448q23 -190 87 -267t181 -77q119 0 252 59v-178 q-129 -57 -283 -57q-201 0 -314.5 121.5t-144.5 398.5h-145z" />
<glyph unicode="&#x2122;" d="M57 1401v94h418v-94h-151v-653h-115v653h-152zM487 748l37 747h138l61 -481h2l61 481h134l38 -747h-110l-19 593h-2l-59 -450h-96l-62 450l-18 -593h-105z" />
<glyph unicode="&#xe000;" horiz-adv-x="1065" d="M0 1065h1065v-1065h-1065v1065z" />
<glyph unicode="&#xfb01;" d="M41 858v166h147v139q0 188 69 270.5t214 82.5q80 0 143 -21v-166q-59 23 -112 23q-55 0 -73.5 -32t-18.5 -136v-160h501v-1024h-219v858h-282v-858h-222v858h-147zM692 1229v327h219v-327h-219z" />
<glyph unicode="&#xfb02;" d="M41 858v166h147v164q0 328 365 328q211 0 358 -64v-1452h-219v1331q-39 20 -121 21q-92 0 -126.5 -32t-34.5 -112v-184h204v-166h-204v-858h-222v858h-147z" />
<glyph unicode="&#xfb03;" d="M12 858v166h80v164q0 170 66.5 249t201.5 79q53 0 103 -13v-133q57 145 242 146q37 0 73 -7v47h207v-327h-207v119q-18 4 -55 4q-80 0 -80 -117v-211h342v-1024h-207v858h-135v-858h-209v858h-135v-858h-207v858h-80zM299 1024h135v164q0 84 21 155q-27 8 -78 9 q-78 0 -78 -117v-211z" />
<glyph unicode="&#xfb04;" d="M12 858v166h80v164q0 170 66.5 249t201.5 79q53 0 103 -13v-135q59 147 250 148q160 0 272 -64v-1452h-207v1337q-20 14 -57 15q-78 0 -78 -117v-211h92v-166h-92v-858h-209v858h-135v-858h-207v858h-80zM299 1024h135v164q0 82 21 153q-33 10 -78 11q-78 0 -78 -117 v-211z" />
</font>
</defs>
</svg>
